SplineFontDB: 3.0
FontName: Neuton-ExtralightItalic
FullName: Neuton Extralight Italic
FamilyName: Neuton
Weight: ExtraLight
Copyright: Copyright (c) 2010, 2011 Brian M Zick (http://21326.info/), \nwith Reserved Font Name 'Neuton'.\n\nThis Font Software is licensed under the SIL Open Font License, Version 1.1.\nThis license is available with a FAQ at: http://scripts.sil.org/OFL\n   WITHOUT WARRANTIES OR CONDITIONS OF ANY KIND, either express or implied.\n   See the License for the specific language governing permissions and\n   limitations under the License.
UComments: "2011-7-27: Created." 
Version: 1.46
ItalicAngle: -9
UnderlinePosition: -361
UnderlineWidth: 0
Ascent: 1638
Descent: 410
LayerCount: 3
Layer: 0 0 "Back"  1
Layer: 1 0 "Fore"  0
Layer: 2 0 "Compare"  0
NeedsXUIDChange: 1
XUID: [1021 467 2011608612 16041572]
FSType: 1
OS2Version: 1
OS2_WeightWidthSlopeOnly: 0
OS2_UseTypoMetrics: 0
CreationTime: 1311747327
ModificationTime: 1371040987
PfmFamily: 17
TTFWeight: 500
TTFWidth: 5
LineGap: 0
VLineGap: 0
OS2TypoAscent: 2106
OS2TypoAOffset: 0
OS2TypoDescent: -485
OS2TypoDOffset: 0
OS2TypoLinegap: 0
OS2WinAscent: 2106
OS2WinAOffset: 0
OS2WinDescent: 485
OS2WinDOffset: 0
HheadAscent: 2106
HheadAOffset: 0
HheadDescent: -485
HheadDOffset: 0
OS2SubXSize: 1095
OS2SubYSize: 1179
OS2SubXOff: 0
OS2SubYOff: 235
OS2SupXSize: 1095
OS2SupYSize: 1179
OS2SupXOff: 0
OS2SupYOff: 809
OS2StrikeYSize: 84
OS2StrikeYPos: 436
OS2Vendor: 'PfEd'
Lookup: 1 0 0 "'onum' Oldstyle Figures lookup 1"  {"'onum' Oldstyle Figures lookup 1-1" ("osf" ) } ['onum' ('DFLT' <'dflt' > 'hebr' <'dflt' > 'latn' <'dflt' > ) ]
Lookup: 3 0 0 "Neuton-Regular-'salt' Stylistic Alternates"  {"Neuton-Regular-Alternate Substitution in Latin lookup 0-1"  } ['salt' ('DFLT' <'dflt' > 'latn' <'dflt' > ) ]
MarkAttachClasses: 1
DEI: 91125
LangName: 1033 
Encoding: UnicodeBmp
Compacted: 1
UnicodeInterp: none
NameList: Adobe Glyph List
DisplaySize: -72
AntiAlias: 1
FitToEm: 1
WidthSeparation: 200
WinInfo: 77 7 7

StartChar: exclam
Encoding: 33 33 0
Width: 368
VWidth: 0
Flags: HMW
LayerCount: 3
Fore
SplineSet
132.453 66 m 0
 141.006 120 170.184 159 204.184 159 c 0
 240.184 159 258.006 120 249.453 66 c 0
 240.267 8 219.773 -33 174.773 -33 c 0
 132.773 -33 123.9 12 132.453 66 c 0
215.444 369 m 1
 250.969 688 308.717 1141 326.456 1253 c 0
 330.732 1280 365.949 1294 401.949 1294 c 0
 428.949 1294 453.365 1284 448.456 1253 c 0
 421.688 1084 336.177 683 258.019 360 c 1
 215.444 369 l 1
EndSplineSet
Colour: ffffff
EndChar

StartChar: quotedbl
Encoding: 34 34 1
Width: 516
VWidth: 0
Flags: HMW
LayerCount: 3
Fore
SplineSet
121 1302 m 1
 230 1296 l 1
 194 895 l 1
 142 891 l 1
 121 1302 l 1
286 1302 m 1
 396 1296 l 1
 360 895 l 1
 307 891 l 1
 286 1302 l 1
EndSplineSet
Colour: ffffff
EndChar

StartChar: numbersign
Encoding: 35 35 2
Width: 1210
VWidth: 0
Flags: HMW
LayerCount: 3
Fore
SplineSet
103 326 m 17
 124 403 l 9
 1033 403 l 17
 1012 326 l 9
 103 326 l 17
174 712 m 17
 196 789 l 9
 1107 789 l 17
 1088 712 l 9
 174 712 l 17
324 -26 m 9
 500 1151 l 17
 568 1161 l 9
 391 -19 l 17
 324 -26 l 9
653 -26 m 9
 830 1151 l 17
 898 1160 l 9
 722 -19 l 17
 653 -26 l 9
EndSplineSet
Colour: ffffff
EndChar

StartChar: dollar
Encoding: 36 36 3
Width: 942
VWidth: 0
Flags: HMW
LayerCount: 3
Fore
SplineSet
124.373 116 m 1
 199.512 401 l 1
 246.245 393 l 1
 239.559 174 l 1
 270.779 87 380.86 37 493.86 37 c 0
 617.86 37 745.896 113 769.497 262 c 0
 816.854 561 251.456 609 306.891 959 c 0
 338.409 1158 528.307 1271 688.307 1271 c 0
 796.307 1271 907.764 1236 962.885 1161 c 1
 880.785 851 l 1
 835.894 858 l 1
 847.381 1101 l 1
 821.835 1167 735.278 1214 653.278 1214 c 0
 541.278 1214 433.083 1137 412.335 1006 c 0
 362.127 689 937.94 631 886.782 308 c 0
 856.848 119 679.882 -26 431.882 -26 c 0
 287.882 -26 175.86 37 124.373 116 c 1
379.649 -179 m 1
 421.426 9 l 1
 446.553 54 l 1
 538.099 632 l 1
 553.869 700 l 1
 634.328 1208 l 1
 623.03 1244 l 1
 637.104 1396 l 1
 748.48 1411 l 5
 707.03 1244 l 1
 682.854 1205 l 1
 597.484 666 l 1
 586.338 583 l 1
 502.553 54 l 1
 515.168 20 l 1
 500.025 -164 l 1
 379.649 -179 l 1
EndSplineSet
Colour: ffffff
EndChar

StartChar: percent
Encoding: 37 37 4
Width: 1230
VWidth: 0
Flags: HMW
LayerCount: 3
Fore
SplineSet
224.189 -43 m 1
 670.13 588 l 1
 1084.96 1212 l 1
 1181.17 1207 l 1
 1177.54 1203 l 1
 749.605 591 l 1
 324.556 -47 l 1
 224.189 -43 l 1
250.388 899 m 0
 277.312 1069 389.12 1213 512.12 1213 c 0
 530.12 1213 549.12 1213 554.646 1210 c 1
 539.201 1163 l 17
 527.419 1177 526.21 1182 507.21 1182 c 0
 422.21 1182 358.602 1014 340.388 899 c 0
 321.698 781 345.99 625 420.99 625 c 0
 504.99 625 575.382 779 594.388 899 c 0
 617.037 1042 604.083 1137 586.111 1194 c 9
 1084.96 1212 l 25
 1087.2 1163 l 25
 677.201 1163 l 17
 699.391 1120 693.307 949 685.388 899 c 0
 658.146 727 532.812 586 414.812 586 c 0
 287.812 586 219.978 707 250.388 899 c 0
726.031 278 m 0
 752.956 448 865.605 591 988.605 591 c 0
 1130.61 591 1191.75 453 1163.4 274 c 0
 1136.47 104 1010.3 -36 892.298 -36 c 0
 765.298 -36 695.938 88 726.031 278 c 0
819.031 278 m 0
 800.342 160 823 0 898 0 c 0
 982 0 1053.18 159 1072.35 280 c 0
 1091.35 400 1059.54 559 983.537 559 c 0
 898.537 559 837.245 393 819.031 278 c 0
EndSplineSet
Colour: ffffff
EndChar

StartChar: ampersand
Encoding: 38 38 5
Width: 1357
VWidth: 0
Flags: HMW
LayerCount: 3
Fore
SplineSet
144.968 199.337 m 0
 144.968 424.007 357 566 534.435 672 c 1
 484.208 747.512 428.674 844.334 428.674 939.327 c 0
 428.674 1118.37 591.307 1272 753.465 1272 c 0
 889.723 1272 970.897 1196.06 970.897 1071.89 c 0
 970.897 884.961 807 776 660.177 683 c 1
 659.701 680 l 1
 867.979 385 l 1
 1109.2 721 l 1
 953.105 752 l 1
 960.49 786 l 1
 1376.49 786 l 1
 1366.11 752 l 1
 1193.51 723 l 1
 908.584 332 l 1
 1016.39 154 1121.04 76 1208.44 47 c 2
 1252.38 34 l 1
 1239.53 -3 l 1
 1194.15 -18 1181.83 -19.5371 1144.83 -20 c 1
 1032 -21.8 957 81 835.379 236 c 1
 730.581 111 589.832 -20 393.832 -20 c 0
 234.087 -20 144.968 75.0373 144.968 199.337 c 0
263.712 246.157 m 0
 263.712 142.944 339.464 65 450.295 65 c 0
 580.295 65 694.024 158 798.932 290 c 1
 568.516 622 l 1
 565.516 622 l 1
 416.737 522.722 263.712 418.987 263.712 246.157 c 0
515.326 997.531 m 0
 515.326 913.943 567.872 818.855 624.779 731 c 1
 755.966 819.183 867.384 899.678 867.384 1037.55 c 0
 867.384 1135.35 804.855 1212 715.962 1212 c 0
 609.192 1212 515.326 1111.44 515.326 997.531 c 0
EndSplineSet
Colour: ffffff
EndChar

StartChar: quotesingle
Encoding: 39 39 6
Width: 350
VWidth: 0
Flags: HMW
LayerCount: 3
Fore
SplineSet
273.12 891 m 1
 317.217 1302 l 1
 425.267 1296 l 1
 325.754 895 l 1
 273.12 891 l 1
EndSplineSet
Colour: ffffff
EndChar

StartChar: parenleft
Encoding: 40 40 7
Width: 581
VWidth: 0
Flags: HMW
LayerCount: 3
Fore
SplineSet
198.064 455 m 0
 116.339 -61 355.05 -328 398.765 -374 c 1
 431.832 -342 l 1
 398.395 -269 245.335 40 311.224 456 c 0
 378.537 881 577.223 1100 680.12 1213 c 1
 662.931 1256 l 1
 587.903 1199 281.375 981 198.064 455 c 0
EndSplineSet
Colour: ffffff
EndChar

StartChar: parenright
Encoding: 41 41 8
Width: 581
VWidth: 0
Flags: HMW
LayerCount: 3
Fore
SplineSet
50.832 -342 m 1
 107.395 -269 358.335 40 424.224 456 c 0
 491.537 881 362.223 1100 295.12 1213 c 1
 325.931 1256 l 1
 382.903 1199 620.375 981 537.064 455 c 0
 455.339 -61 132.05 -328 73.7646 -374 c 1
 50.832 -342 l 1
EndSplineSet
Colour: ffffff
EndChar

StartChar: asterisk
Encoding: 42 42 9
Width: 916
VWidth: 0
Flags: HMW
LayerCount: 3
Fore
SplineSet
107 990 m 1
 149 1093 l 1
 433 970 l 1
 405 1289 l 1
 514 1280 l 1
 489 973 l 5
 782 1097 l 1
 807 990 l 1
 507 923 l 5
 714 680 l 1
 622 623 l 1
 465 893 l 1
 296 616 l 1
 213 684 l 1
 417 919 l 1
 107 990 l 1
EndSplineSet
Colour: ffffff
EndChar

StartChar: plus
Encoding: 43 43 10
Width: 732
VWidth: 0
Flags: HMW
LayerCount: 3
Fore
SplineSet
111 426 m 1
 124 495 l 1
 332 495 l 1
 332 742 l 1
 399 730 l 1
 401 495 l 1
 621 495 l 1
 610 426 l 1
 401 426 l 1
 402 172 l 1
 332 187 l 1
 332 426 l 1
 111 426 l 1
EndSplineSet
Colour: ffffff
EndChar

StartChar: comma
Encoding: 44 44 11
Width: 514
VWidth: 0
Flags: HMW
LayerCount: 3
Fore
SplineSet
114 -236 m 1
 257 -179 292 -112 292 -30 c 0
 292 57 242 112 183 112 c 0
 174 112 165 112 156 108 c 1
 153 117 153 118 153 127 c 0
 153 182 192 218 249 218 c 0
 325 218 392 147 392 9 c 0
 392 -85 335 -215 126 -281 c 1
 114 -236 l 1
EndSplineSet
Colour: ffffff
EndChar

StartChar: hyphen
Encoding: 45 45 12
Width: 664
VWidth: 0
Flags: HMW
LayerCount: 3
Fore
SplineSet
126 419 m 1
 136 480 l 1
 542 497 l 1
 533 437 l 1
 126 419 l 1
EndSplineSet
Colour: ffffff
EndChar

StartChar: period
Encoding: 46 46 13
Width: 376
VWidth: 0
Flags: HMW
LayerCount: 3
Fore
SplineSet
126 70 m 0
 126 133 146 167 189 167 c 0
 232 167 252 134 252 70 c 0
 252 4 235 -33 189 -33 c 0
 143 -33 126 6 126 70 c 0
EndSplineSet
Colour: ffffff
EndChar

StartChar: colon
Encoding: 58 58 14
Width: 378
VWidth: 0
Flags: HMW
LayerCount: 3
Fore
SplineSet
144.313 103 m 0
 154.292 166 179.677 200 222.677 200 c 0
 265.677 200 280.45 167 270.313 103 c 0
 259.86 37 237 0 191 0 c 0
 145 0 134.177 39 144.313 103 c 0
241.254 734 m 0
 251.232 797 276.301 829 319.301 829 c 0
 362.301 829 376.391 798 366.254 734 c 0
 355.801 668 334.94 631 288.94 631 c 0
 242.94 631 231.117 670 241.254 734 c 0
EndSplineSet
Colour: ffffff
EndChar

StartChar: slash
Encoding: 47 47 16
Width: 746
VWidth: 0
Flags: HMW
LayerCount: 3
Fore
SplineSet
100 -358 m 1
 562 1241 l 1
 644 1244 l 1
 179 -354 l 1
 100 -358 l 1
EndSplineSet
Colour: ffffff
EndChar

StartChar: equal
Encoding: 61 61 17
Width: 875
VWidth: 0
Flags: HMW
LayerCount: 3
Fore
SplineSet
122 340 m 1
 134 405 l 1
 749 405 l 1
 738 340 l 1
 122 340 l 1
125 580 m 1
 138 645 l 1
 751 645 l 1
 740 580 l 1
 125 580 l 1
EndSplineSet
Colour: ffffff
EndChar

StartChar: greater
Encoding: 62 62 18
Width: 867
VWidth: 0
Flags: HMW
LayerCount: 3
Fore
SplineSet
104 -37 m 1
 624 444 l 1
 123 926 l 1
 139 973 l 1
 758 456 l 1
 760 426 l 1
 126 -82 l 1
 104 -37 l 1
EndSplineSet
Colour: ffffff
EndChar

StartChar: question
Encoding: 63 63 19
Width: 726
VWidth: 0
Flags: HMW
LayerCount: 3
Fore
SplineSet
287.988 1157.42 m 0
 287.988 1229.68 417.538 1286 506.683 1286 c 0
 665.838 1286 769.967 1140.5 769.967 981.735 c 0
 769.967 683.364 387.573 708.514 387.573 481.356 c 0
 387.573 443.517 397.021 396.301 411.701 358 c 1
 370.168 342 l 1
 338.321 377.859 313 437.363 313 503.693 c 0
 313 790.036 694.547 765.74 694.547 992.529 c 0
 694.547 1092.56 641.512 1182 526.21 1182 c 0
 450.21 1182 374.301 1151 324.015 1105 c 1
 302.019 1117.43 287.988 1135.36 287.988 1157.42 c 0
302.373 30.3937 m 0
 302.373 96.1041 334.052 159 377.184 159 c 0
 406.987 159 423.646 132.272 423.646 92.4324 c 0
 423.646 25.3734 395.678 -33 346.773 -33 c 0
 314.495 -33 302.373 -6.42187 302.373 30.3937 c 0
EndSplineSet
Colour: ffffff
EndChar

StartChar: at
Encoding: 64 64 20
Width: 1411
VWidth: 0
Flags: HMW
LayerCount: 3
Fore
SplineSet
116 333 m 0
 116 691 367 1044 785 1044 c 0
 1066 1044 1297 847 1297 573 c 0
 1297 302 1102 69 828 69 c 0
 769 69 778 131 781 188 c 1
 772 188 l 1
 732 128 636 60 560 60 c 0
 467 60 413 153 413 325 c 0
 413 609 608 790 777 790 c 0
 830 790 858 785 916 772 c 1
 931 752 l 1
 889 385 l 2
 868 206 852 136 900 136 c 0
 1054 136 1213 280 1213 540 c 0
 1213 812 983 988 747 988 c 0
 435 988 206 721 206 358 c 0
 206 46 398 -163 725 -163 c 0
 875 -163 1046 -83 1092 -43 c 1
 1113 -82 l 1
 1026 -146 909 -227 688 -227 c 0
 383 -227 116 -32 116 333 c 0
502 369 m 0
 502 218 535 138 586 138 c 0
 639 138 747 203 783 243 c 1
 838 714 l 1
 811 723 754 725 723 725 c 0
 598 725 502 577 502 369 c 0
EndSplineSet
Colour: ffffff
EndChar

StartChar: A
Encoding: 65 65 21
Width: 1408
VWidth: 0
Flags: HMW
LayerCount: 3
Fore
SplineSet
112 0 m 1
 123.652 42 l 1
 270.403 72 l 1
 895.614 1254 l 1
 950.831 1268 l 1
 1175.45 66 l 1
 1304.44 47 l 1
 1289.16 1 l 1
 880.158 1 l 1
 895.811 43 l 1
 1066.56 73 l 1
 991.708 478 l 1
 559.708 478 l 1
 346.295 65 l 1
 527.286 46 l 1
 511 0 l 1
 112 0 l 1
588.577 534 m 1
 981.577 534 l 1
 875.847 1085 l 1
 588.577 534 l 1
EndSplineSet
Colour: ffffff
EndChar

StartChar: B
Encoding: 66 66 22
Width: 1183
VWidth: 0
Flags: HMW
LayerCount: 3
Fore
SplineSet
109 0 m 1
 123.652 42 l 1
 297.403 72 l 1
 468.617 1153 l 1
 300.102 1175 l 1
 315.804 1211 l 1
 465.288 1233 594.089 1257 771.089 1257 c 0
 1006.58 1257 1123.79 1153.2 1123.79 995.026 c 0
 1123.79 828.896 1005.87 726.757 897.801 668 c 1
 896.851 662 l 1
 1026.79 641.006 1143.93 536.707 1143.93 391.052 c 4
 1143.93 139.986 909.117 0 539 0 c 2
 109 0 l 1
400.553 54 m 1
 546.553 54 l 2
 872.695 54 1043.26 156.794 1043.26 370.956 c 4
 1043.26 496.102 938.734 621 746.356 621 c 2
 490.356 621 l 1
 400.553 54 l 1
498.117 670 m 1
 818.117 670 l 1
 931.78 723.296 1019.19 817.137 1019.19 976.312 c 0
 1019.19 1128.23 900.44 1212 705.962 1212 c 0
 679.962 1212 610.962 1212 583.012 1206 c 1
 498.117 670 l 1
EndSplineSet
Colour: ffffff
EndChar

StartChar: C
Encoding: 67 67 23
Width: 1160
VWidth: 0
Flags: HMW
LayerCount: 3
Fore
SplineSet
197.619 465.595 m 0
 197.619 852.443 451.739 1271 878.307 1271 c 0
 1011.31 1271 1121 1234 1172.47 1191 c 1
 1088.09 854 l 1
 1042.36 862 l 1
 1053.38 1121 l 1
 1016.88 1181 981.438 1215 822.438 1215 c 0
 560.865 1215 312.393 895.014 312.393 482.961 c 0
 312.393 214.597 438.518 54 679.553 54 c 0
 833.553 54 973.268 125 1070 218 c 1
 1087.14 177 l 1
 1009.25 83 836.882 -26 620.882 -26 c 0
 357.15 -26 197.619 168.22 197.619 465.595 c 0
EndSplineSet
Colour: ffffff
EndChar

StartChar: D
Encoding: 68 68 24
Width: 1375
VWidth: 0
Flags: HMW
LayerCount: 3
Fore
SplineSet
109 0 m 1
 123.652 42 l 1
 297.403 72 l 1
 468.617 1153 l 1
 300.102 1175 l 1
 315.804 1211 l 1
 517.714 1242 658.406 1259 804.406 1259 c 0
 1208 1259 1377.25 1041.23 1377.25 771.986 c 0
 1377.25 338.873 1090.96 0 545 0 c 2
 109 0 l 1
400.553 54 m 1
 580.553 54 l 2
 974.628 54 1264.48 290.757 1264.48 734.31 c 0
 1264.48 1035.39 1080.33 1207 747.17 1207 c 0
 707.584 1207 621.385 1204.29 580.161 1188 c 1
 400.553 54 l 1
EndSplineSet
Colour: ffffff
EndChar

StartChar: E
Encoding: 69 69 25
Width: 1184
VWidth: 0
Flags: HMW
LayerCount: 3
Fore
SplineSet
113 0 m 1
 125.652 42 l 1
 300.403 72 l 1
 475.102 1175 l 1
 300.378 1202 l 1
 314.03 1244 l 1
 1225.03 1244 l 5
 1143.51 925 l 5
 1098.46 931 l 5
 1120.95 1193 l 5
 586.953 1193 l 5
 502.375 659 l 5
 837.375 659 l 5
 896.391 798 l 5
 951.658 806 l 5
 857.046 417 l 5
 804.621 408 l 5
 819.822 605 l 5
 493.822 605 l 5
 406.553 54 l 5
 968.553 54 l 5
 1085.16 323 l 5
 1124.57 313 l 5
 1045 0 l 5
 113 0 l 1
EndSplineSet
Colour: ffffff
EndChar

StartChar: F
Encoding: 70 70 26
Width: 1137
VWidth: 0
Flags: HMW
LayerCount: 3
Fore
SplineSet
114 0 m 1
 123.652 42 l 1
 298.403 72 l 1
 473.102 1175 l 1
 300.378 1202 l 1
 314.03 1244 l 1
 1225.03 1244 l 5
 1141.03 922 l 5
 1093.3 930 l 5
 1113.95 1193 l 5
 583.953 1193 l 5
 495.258 633 l 5
 828.258 633 l 5
 889.432 773 l 5
 946.54 780 l 5
 854.087 392 l 5
 797.819 384 l 5
 810.863 580 l 5
 486.863 580 l 5
 406.087 70 l 5
 649.395 53 l 5
 629 0 l 5
 114 0 l 1
EndSplineSet
Colour: ffffff
EndChar

StartChar: G
Encoding: 71 71 27
Width: 1339
VWidth: 0
Flags: HMW
LayerCount: 3
Fore
SplineSet
198.332 465.884 m 0
 198.332 858.49 489.117 1262 911.881 1262 c 0
 1044.88 1262 1193.74 1235.84 1280.31 1170 c 1
 1199.94 852 l 1
 1155.74 857 l 1
 1162.11 1093 l 1
 1124.83 1148 1028.54 1201 869.536 1201 c 0
 553.112 1201 319.304 883.881 319.304 487.866 c 0
 319.304 251.43 424.01 45 731.127 45 c 0
 823.127 45 918.295 65 1002.69 118 c 1
 1063.92 492 l 1
 826.885 517 l 1
 839.062 556 l 1
 1319.06 556 l 1
 1305.88 517 l 1
 1168.56 496 l 1
 1102.51 79 l 1
 957 0 816.832 -20 616.832 -20 c 0
 375.535 -20 198.332 162.676 198.332 465.884 c 0
EndSplineSet
Colour: ffffff
EndChar

StartChar: H
Encoding: 72 72 28
Width: 1512
VWidth: 0
Flags: HMW
LayerCount: 3
Fore
SplineSet
117 0 m 1
 128.652 42 l 1
 300.403 72 l 1
 475.894 1180 l 1
 299.854 1205 l 1
 309.03 1244 l 1
 770.03 1244 l 5
 758.854 1205 l 5
 586.21 1182 l 5
 502.108 651 l 5
 1215.11 651 l 1
 1298.89 1180 l 1
 1118.85 1205 l 1
 1132.03 1244 l 1
 1592.03 1244 l 5
 1577.85 1205 l 5
 1407.21 1182 l 5
 1230.29 65 l 5
 1410.29 46 l 5
 1396 0 l 5
 938 0 l 1
 952.652 42 l 1
 1123.4 72 l 1
 1205.61 591 l 1
 492.605 591 l 5
 409.295 65 l 5
 592.286 46 l 5
 574 0 l 5
 117 0 l 1
EndSplineSet
Colour: ffffff
EndChar

StartChar: I
Encoding: 73 73 29
Width: 695
VWidth: 0
Flags: HMW
LayerCount: 3
Fore
SplineSet
117 0 m 1
 128.652 42 l 1
 291.403 72 l 1
 466.894 1180 l 1
 297.854 1205 l 1
 310.03 1244 l 1
 772.03 1244 l 5
 758.854 1205 l 5
 580.21 1182 l 5
 403.295 65 l 5
 593.286 46 l 5
 577 0 l 5
 117 0 l 1
EndSplineSet
Colour: ffffff
EndChar

StartChar: J
Encoding: 74 74 30
Width: 749
VWidth: 0
Flags: HMW
LayerCount: 3
Fore
SplineSet
57.4941 -277 m 5
 246.984 -135 355 0 399.664 282 c 2
 541.894 1180 l 1
 365.854 1205 l 1
 377.03 1244 l 1
 841.03 1244 l 1
 828.854 1205 l 1
 658.21 1182 l 1
 524.019 360 l 2
 459.248 -30 352.084 -151 74.5254 -325 c 1
 57.4941 -277 l 5
EndSplineSet
Colour: ffffff
EndChar

StartChar: K
Encoding: 75 75 31
Width: 1325
VWidth: 0
Flags: HMW
LayerCount: 3
Fore
SplineSet
118 0 m 1
 130.652 42 l 1
 292.403 72 l 1
 467.894 1180 l 1
 298.854 1205 l 1
 310.03 1244 l 1
 764.03 1244 l 1
 754.854 1205 l 1
 581.21 1182 l 1
 404.295 65 l 1
 587.286 46 l 1
 569 0 l 1
 118 0 l 1
540.664 604 m 1
 541.04 619 l 1
 591.326 665 634.418 705.568 712.015 785 c 2
 1097.89 1180 l 1
 928.854 1205 l 1
 939.03 1244 l 1
 1356.03 1244 l 1
 1346.85 1205 l 1
 1190.21 1182 l 1
 646.624 629 l 1
 857.842 321 l 2
 997.623 117.17 1053 45 1218.29 46 c 1
 1199.47 3 l 1
 1151.1 -12 1131.52 -22 1089.52 -22 c 0
 956.516 -22 879.096 89 784.429 230 c 2
 540.664 604 l 1
EndSplineSet
Colour: ffffff
EndChar

StartChar: L
Encoding: 76 76 32
Width: 1159
VWidth: 0
Flags: HMW
LayerCount: 3
Fore
SplineSet
112 0 m 1
 123.652 42 l 1
 297.403 72 l 1
 472.577 1178 l 1
 304.536 1203 l 1
 314.872 1243 l 1
 774.872 1243 l 1
 764.536 1203 l 1
 585.21 1182 l 1
 406.553 54 l 1
 936.553 54 l 1
 1040.53 338 l 1
 1083.27 330 l 1
 1043 0 l 5
 112 0 l 1
EndSplineSet
Colour: ffffff
EndChar

StartChar: M
Encoding: 77 77 33
Width: 1803
VWidth: 0
Flags: HMW
LayerCount: 3
Fore
SplineSet
106 0 m 1
 116.227 33 l 1
 288.137 64 l 1
 528.102 1175 l 5
 349.328 1208 l 5
 362.03 1244 l 5
 695.03 1244 l 5
 736.254 1062 l 5
 925 249 l 1
 1386.06 1099 l 5
 1477.03 1244 l 5
 1801.03 1244 l 5
 1790.33 1208 l 5
 1629.58 1178 l 5
 1536.03 57 l 1
 1727.33 40 l 1
 1719 0 l 1
 1237 0 l 1
 1248.23 33 l 1
 1424.14 64 l 1
 1513.15 1169 l 5
 891.503 60 l 1
 839.919 50 l 1
 593.301 1151 l 5
 360.028 57 l 1
 532.335 40 l 1
 520 0 l 1
 106 0 l 1
EndSplineSet
Colour: ffffff
EndChar

StartChar: N
Encoding: 78 78 34
Width: 1466
VWidth: 0
Flags: HMW
LayerCount: 3
Fore
SplineSet
119 0 m 1
 131.652 42 l 1
 303.403 72 l 1
 478.102 1175 l 1
 298.328 1208 l 1
 312.03 1244 l 1
 610.03 1244 l 1
 1155.93 197 l 1
 1310.89 1180 l 1
 1136.85 1205 l 1
 1149.03 1244 l 1
 1573.03 1244 l 1
 1558.85 1205 l 1
 1389.21 1182 l 1
 1200.89 -7 l 1
 1145.15 -18 l 1
 549.449 1124 l 5
 380.295 65 l 1
 557.286 46 l 1
 540 0 l 1
 119 0 l 1
EndSplineSet
Colour: ffffff
EndChar

StartChar: O
Encoding: 79 79 35
Width: 1341
VWidth: 0
Flags: HMW
LayerCount: 3
Fore
SplineSet
201.518 487.767 m 0
 201.518 952.592 523.674 1274 930.782 1274 c 0
 1224.62 1274 1367.39 1052.66 1367.39 765.244 c 0
 1367.39 360.064 1112.48 -27 652.724 -27 c 0
 364.652 -27 201.518 196.515 201.518 487.767 c 0
323.771 548.439 m 0
 323.771 239 449.821 44 709.86 44 c 0
 1058.01 44 1246.88 332.199 1246.88 699.238 c 0
 1246.88 986.393 1117.62 1205 873.912 1205 c 0
 514.646 1205 323.771 903.89 323.771 548.439 c 0
EndSplineSet
Colour: ffffff
EndChar

StartChar: P
Encoding: 80 80 36
Width: 1119
VWidth: 0
Flags: HMW
LayerCount: 3
Fore
SplineSet
110 0 m 1
 121.652 42 l 1
 284.403 72 l 1
 455.617 1153 l 1
 297.102 1175 l 1
 311.804 1211 l 1
 444.972 1231 570.931 1256 742.931 1256 c 0
 1026.4 1256 1151.66 1134 1151.66 949.325 c 0
 1151.66 642.157 863.656 462 595.174 462 c 0
 580.174 462 559.174 462 545.49 464 c 1
 542.143 506 l 1
 596.617 509 l 1
 893.248 521.89 1030.13 681.582 1030.13 913.054 c 0
 1030.13 1083.52 942.168 1212 704.962 1212 c 0
 662.962 1212 579.012 1206 579.012 1206 c 1
 398.453 66 l 1
 624.286 46 l 1
 609 0 l 1
 110 0 l 1
EndSplineSet
Colour: ffffff
EndChar

StartChar: Q
Encoding: 81 81 37
Width: 1338
VWidth: 0
Flags: HMW
LayerCount: 3
Fore
SplineSet
203.826 496.452 m 0
 203.826 946.005 515.211 1274 907.782 1274 c 0
 1228.43 1274 1366.93 1073.51 1366.93 793.917 c 0
 1366.93 381.966 1118.27 63.2051 771.1 -13 c 1
 845.295 -258 972.802 -299 1162.43 -314 c 1
 1146.3 -359 l 1
 1130.15 -367 1097.11 -376 1010.61 -376 c 0
 823.841 -376 725.561 -212.628 719.516 -23 c 1
 693.04 -26 663.04 -25 636.04 -25 c 0
 383.486 -25 203.826 200.423 203.826 496.452 c 0
312.554 529.047 m 0
 312.554 237.294 480.36 32.2275 731.276 27 c 1
 1011 81 1251.32 343.307 1251.32 753.804 c 0
 1251.32 1042.9 1105.81 1218 853.912 1218 c 0
 534.715 1218 312.554 920.488 312.554 529.047 c 0
EndSplineSet
Colour: ffffff
EndChar

StartChar: R
Encoding: 82 82 38
Width: 1284
VWidth: 0
Flags: HMW
LayerCount: 3
Fore
SplineSet
110 0 m 1
 123.652 42 l 1
 284.403 72 l 1
 455.617 1153 l 1
 298.943 1174 l 1
 313.646 1210 l 1
 466.446 1234 596.456 1253 745.456 1253 c 0
 964.74 1253 1135.72 1157.07 1135.72 966.096 c 0
 1135.72 788.156 1008 648 836.279 570 c 1
 836.121 569 l 1
 956.158 323 l 2
 1071 88 1128 45 1258.38 34 c 1
 1246.53 -3 l 1
 1201.15 -18 1178.15 -18 1141.15 -18 c 0
 1012.77 -18 945.27 68.6874 872.695 238 c 2
 747.104 531 l 1
 463.103 531 l 1
 391.295 65 l 1
 594.286 46 l 1
 577 0 l 1
 110 0 l 1
471.972 587 m 1
 765.972 587 l 1
 876 618 1020.27 778.531 1020.27 951.271 c 0
 1020.27 1122.36 895.705 1207 688.17 1207 c 0
 634.17 1207 571.378 1202 571.378 1202 c 1
 471.972 587 l 1
EndSplineSet
Colour: ffffff
EndChar

StartChar: S
Encoding: 83 83 39
Width: 958
VWidth: 0
Flags: HMW
LayerCount: 3
Fore
SplineSet
113.037 76 m 5
 195.929 391 l 5
 249.661 383 l 5
 218.224 134 l 5
 256.728 72.4014 377.672 37 498.86 37 c 4
 642.758 37 807.182 122.046 807.182 295.295 c 4
 807.182 552.619 308.243 616.645 308.243 913.961 c 4
 308.243 1144.59 537.786 1271 713.307 1271 c 4
 823.525 1271 939.4 1248.72 1000.22 1201 c 5
 926.953 871 l 5
 872.062 878 l 5
 895.133 1131 l 5
 862.058 1179.48 761.108 1214 668.278 1214 c 4
 543.833 1214 414.375 1114.34 414.375 959.297 c 4
 414.375 686.016 921.852 624.027 921.852 345.048 c 4
 921.852 127 706.033 -26 436.882 -26 c 4
 288.518 -26 169.988 19.2539 113.037 76 c 5
EndSplineSet
Colour: ffffff
EndChar

StartChar: T
Encoding: 84 84 40
Width: 1127
VWidth: 0
Flags: HMW
LayerCount: 3
Fore
SplineSet
260.03 922 m 5
 301.03 1244 l 5
 1339.03 1244 l 1
 1251.45 912 l 1
 1202.4 918 l 1
 1228.95 1193 l 1
 857.953 1193 l 1
 680.562 73 l 1
 853.286 46 l 1
 835 0 l 1
 382 0 l 1
 393.652 42 l 1
 568.403 72 l 1
 745.953 1193 l 1
 389.953 1193 l 5
 310.764 914 l 5
 260.03 922 l 5
EndSplineSet
Colour: ffffff
EndChar

StartChar: U
Encoding: 85 85 41
Width: 1477
VWidth: 0
Flags: HMW
LayerCount: 3
Fore
SplineSet
296.854 1205 m 1
 307.03 1244 l 1
 761.03 1244 l 1
 750.854 1205 l 1
 578.21 1182 l 1
 467.816 485 l 2
 414.38 147.616 557.824 42 789.652 42 c 0
 1022.96 42 1164.97 164 1210.11 449 c 6
 1325.89 1180 l 5
 1143.85 1205 l 5
 1155.03 1244 l 5
 1594.03 1244 l 1
 1579.85 1205 l 1
 1410.21 1182 l 1
 1297.61 490 l 2
 1241.31 144.007 1081.72 -27 745.724 -27 c 0
 501.724 -27 291.503 60 353.59 452 c 2
 468.894 1180 l 1
 296.854 1205 l 1
EndSplineSet
Colour: ffffff
EndChar

StartChar: V
Encoding: 86 86 42
Width: 1405
VWidth: 0
Flags: HMW
LayerCount: 3
Fore
SplineSet
288.328 1208 m 1
 298.03 1244 l 1
 730.03 1244 l 5
 720.328 1208 l 5
 548.21 1182 l 5
 734.342 180 l 1
 1267.58 1178 l 1
 1086.33 1208 l 1
 1095.03 1244 l 1
 1500.03 1244 l 1
 1490.33 1208 l 1
 1357.21 1182 l 1
 717.258 -11 l 1
 663.882 -26 l 1
 430.577 1178 l 1
 288.328 1208 l 1
EndSplineSet
Colour: ffffff
EndChar

StartChar: W
Encoding: 87 87 43
Width: 1889
VWidth: 0
Flags: HMW
LayerCount: 3
Fore
SplineSet
267.17 1207 m 1
 280.03 1244 l 1
 677.03 1244 l 1
 668.962 1212 l 1
 502.21 1182 l 1
 639 162 l 1
 1116.38 1212 l 1
 1180.33 1218 l 1
 1311 168 l 1
 1812.1 1175 l 1
 1630.65 1210 l 1
 1641.03 1244 l 1
 2024.03 1244 l 1
 2015.33 1208 l 1
 1892.58 1178 l 1
 1289.94 -13 l 1
 1222.88 -26 l 1
 1095.8 990 l 1
 631.941 -13 l 1
 559.04 -25 l 1
 384.577 1178 l 1
 267.17 1207 l 1
EndSplineSet
Colour: ffffff
EndChar

StartChar: X
Encoding: 88 88 44
Width: 1425
VWidth: 0
Flags: HMW
LayerCount: 3
Fore
SplineSet
110 0 m 1
 121.702 36 l 1
 250.137 64 l 1
 736.782 643 l 1
 454.527 1184 l 1
 322.962 1212 l 1
 332.03 1244 l 1
 752.03 1244 l 1
 741.962 1212 l 1
 581.21 1182 l 1
 837.711 689 l 1
 1270.53 1184 l 1
 1102.17 1207 l 1
 1113.03 1244 l 1
 1481.03 1244 l 1
 1475.33 1208 l 1
 1346 1187 l 1
 866.425 633 l 5
 1184.39 53 l 1
 1308.7 36 l 1
 1296 0 l 1
 881 0 l 1
 889.276 27 l 1
 1057.5 60 l 1
 775.229 587 l 1
 328.503 60 l 1
 490.652 42 l 1
 476 0 l 1
 110 0 l 1
EndSplineSet
Colour: ffffff
EndChar

StartChar: Y
Encoding: 89 89 45
Width: 1302
VWidth: 0
Flags: HMW
LayerCount: 3
Fore
SplineSet
299.17 1207 m 1
 308.872 1243 l 1
 732.872 1243 l 1
 723.17 1207 l 1
 553.052 1181 l 1
 764.438 558 l 1
 1168.58 1178 l 1
 988.328 1208 l 1
 996.03 1244 l 1
 1386.03 1244 l 1
 1377.33 1208 l 1
 1244.21 1182 l 1
 785.45 489 l 1
 718.611 67 l 1
 896.286 46 l 1
 881 0 l 1
 421 0 l 1
 433.652 42 l 1
 608.403 72 l 1
 674.45 489 l 1
 433.419 1177 l 1
 299.17 1207 l 1
EndSplineSet
Colour: ffffff
EndChar

StartChar: Z
Encoding: 90 90 46
Width: 1177
VWidth: 0
Flags: HMW
LayerCount: 3
Fore
SplineSet
116 0 m 1
 116.86 37 l 1
 1076.32 1189 l 1
 441.319 1189 l 1
 338.021 903 l 1
 299.764 914 l 1
 349.03 1244 l 1
 1221.03 1244 l 1
 1220.17 1207 l 1
 261.187 58 l 1
 940.188 58 l 1
 1071.17 342 l 1
 1114.06 335 l 1
 1031 0 l 1
 116 0 l 1
EndSplineSet
Colour: ffffff
EndChar

StartChar: backslash
Encoding: 92 92 48
Width: 747
VWidth: 0
Flags: HMW
LayerCount: 3
Fore
SplineSet
103 1244 m 1
 186 1241 l 1
 647 -358 l 1
 568 -354 l 1
 103 1244 l 1
EndSplineSet
Colour: ffffff
EndChar

StartChar: bracketright
Encoding: 93 93 49
Width: 605
VWidth: 0
Flags: HMW
LayerCount: 3
Fore
SplineSet
48.7646 -374 m 1
 49.2578 -333 l 1
 310.584 -312 l 1
 547.21 1182 l 1
 295.536 1203 l 1
 306.931 1256 l 1
 668.931 1256 l 1
 410.765 -374 l 1
 48.7646 -374 l 1
EndSplineSet
Colour: ffffff
EndChar

StartChar: asciicircum
Encoding: 94 94 50
Width: 863
VWidth: 0
Flags: HMW
LayerCount: 3
Fore
SplineSet
111 826 m 1
 399 1238 l 1
 455 1251 l 1
 749 824 l 1
 710 796 l 1
 426 1123 l 1
 417 1123 l 1
 144 802 l 1
 111 826 l 1
EndSplineSet
Colour: ffffff
EndChar

StartChar: underscore
Encoding: 95 95 51
Width: 1106
VWidth: 0
Flags: HMW
LayerCount: 3
Fore
SplineSet
134 -133 m 1
 145 -66 l 1
 973 -66 l 1
 965 -133 l 1
 134 -133 l 1
EndSplineSet
Colour: ffffff
EndChar

StartChar: grave
Encoding: 96 96 52
Width: 504
VWidth: 0
Flags: HMW
LayerCount: 3
Fore
SplineSet
138 1661 m 1
 226 1698 l 1
 358 1362 l 1
 319 1335 l 1
 138 1661 l 1
EndSplineSet
Colour: ffffff
EndChar

StartChar: a
Encoding: 97 97 53
Width: 848
VWidth: 0
Flags: HMW
LayerCount: 3
Fore
SplineSet
68 264 m 0
 68 630.58 305 857.805 561.184 857.805 c 0
 627.807 857.805 696.978 846.954 725 823.872 c 1
 651 378 l 2
 631 255.343 621 170.41 621 114.62 c 0
 621 37 690.262 43.9385 770.262 50 c 1
 764.262 7 l 1
 740.609 -4.25 694.935 -17 649.262 -17 c 11
 551.384 -17 509 45 520 132 c 1
 508 132 l 1
 462 49 373 -21 272 -21 c 3
 148.179 -21 68 87.2031 68 264 c 0
170 300 m 0
 170 128.024 219.636 53 313 53 c 3
 406.674 53 468.302 121.548 525 201 c 1
 619 767.872 l 1
 591.235 786.443 546.614 792.872 501 792.872 c 3
 318.341 792.872 170 633.286 170 300 c 0
EndSplineSet
Layer: 2
SplineSet
634 124.62 m 4
 634 47 703.262 53.9381 783.262 60 c 5
 777.262 7 l 5
 753.609 -4.25 707.935 -17 662.262 -17 c 7
 543.26 -17 517.245 43 540.262 194 c 10
 583 488.872 l 18
 604.108 634.506 618.921 763.231 483.572 763.231 c 0
 365.598 763.231 276.291 683.171 226 623.872 c 9
 152 0 l 1
 44 0 l 9
 131 698.872 l 18
 144.679 791.872 75.305 784.872 3 782.872 c 9
 9 824.872 l 17
 43.569 845.872 83.765 857.872 132 857.872 c 3
 213.113 857.872 255 822.417 225 687.872 c 1
 237 687.872 l 1
 293.197 761.007 405.504 856.872 522 856.872 c 3
 661.011 856.872 715.503 787.697 689 576.872 c 10
 664 378 l 6
 649 260 634 178.292 634 124.62 c 4
EndSplineSet
Colour: ffffff
EndChar

StartChar: b
Encoding: 98 98 54
Width: 869
VWidth: 0
Flags: HMW
LayerCount: 3
Fore
SplineSet
92 20 m 9
 258 1165.1 l 18
 273 1267 208.947 1259.1 132 1249.1 c 9
 139 1294.1 l 17
 175.255 1308.74 217.412 1317.1 268 1317.1 c 0
 362.583 1317.1 379 1274 359 1124.1 c 2
 323 849 l 1
 292 729 l 1
 304 729 l 1
 353.533 798.264 443.143 856.872 545 856.872 c 3
 692 856.872 787 723 787 504 c 0
 787 223 603.003 -23 319 -23 c 3
 247.574 -23 146.792 -10.0411 92 20 c 9
208 73 m 17
 234.343 53.0138 299.671 40 365 40 c 0
 578.261 40 683.488 219.757 683.488 467.208 c 0
 683.488 663.18 616.648 784.294 489.624 784.294 c 0
 403.377 784.294 343.219 733.982 294 664 c 9
 208 73 l 17
EndSplineSet
Layer: 2
SplineSet
401.639 -26 m 7
 214.926 -26 117.639 133.164 117.639 336 c 4
 117.639 604.068 291.386 856.872 535 856.872 c 7
 725.902 856.872 810.639 679.936 810.639 503 c 4
 810.639 197.577 630.797 -26 401.639 -26 c 7
699.639 454 m 4
 699.639 618.686 639.203 773.872 475 773.872 c 7
 329.424 773.872 227.639 613.078 227.639 377 c 4
 227.639 167.163 319.516 59 434.639 59 c 4
 587.538 59 699.639 192 699.639 454 c 4
EndSplineSet
Colour: ffffff
EndChar

StartChar: c
Encoding: 99 99 55
Width: 741
VWidth: 0
Flags: HMW
LayerCount: 3
Fore
SplineSet
67 328 m 4
 67 634.381 260.226 856.872 471.772 856.872 c 7
 585.919 856.872 642.261 792.516 642.261 731.55 c 4
 642.261 692.594 613.11 668.075 580 663 c 5
 554.288 757.454 492.505 793.872 429.772 793.872 c 4
 236.69 793.872 164 553.12 164 390 c 4
 164 158.035 237.104 48 401 48 c 4
 521.67 48 576.177 85.2578 614 111 c 5
 629 81 l 5
 595.094 42.0225 494.344 -24 350 -24 c 7
 183.749 -24 67 91.5664 67 328 c 4
EndSplineSet
Colour: ffffff
EndChar

StartChar: d
Encoding: 100 100 56
Width: 840
VWidth: 0
Flags: HMW
LayerCount: 3
Fore
SplineSet
64 264 m 0
 64 645.34 313 856.872 527 856.872 c 0
 558.792 856.872 592.737 853.465 623.691 842.37 c 1
 666 1165.1 l 2
 679 1267 615 1259.1 535 1249.1 c 1
 542 1294.1 l 1
 577.693 1308.74 619.196 1317.1 669 1317.1 c 0
 764.622 1317.1 782.763 1275 761 1124.1 c 2
 647 378 l 2
 628 255.343 617 170.41 617 114.62 c 0
 617 37 686.262 43.9385 766.262 50 c 1
 760.262 7 l 1
 736.608 -4.25 690.935 -17 645.262 -17 c 0
 547.384 -17 492.368 45.5205 516 132 c 1
 504 132 l 1
 458 49 369 -21 268 -21 c 0
 144.179 -21 64 87.2031 64 264 c 0
159 300 m 0
 159 129.416 207.595 55 299 55 c 0
 397.092 55 461.627 122.621 521 201 c 1
 605 758.872 l 1
 577.47 784.13 533.227 792.872 488 792.872 c 0
 322.95 792.872 159 653.338 159 300 c 0
EndSplineSet
Colour: ffffff
EndChar

StartChar: e
Encoding: 101 101 57
Width: 717
VWidth: 0
Flags: HMW
LayerCount: 3
Fore
SplineSet
72 309 m 0
 72 636 256.853 856.872 464 856.872 c 3
 574.034 856.872 638.169 766.838 638.169 670.598 c 0
 638.169 465.664 393.289 371.507 177 354 c 1
 172 167.321 226.001 48 374 48 c 3
 481.418 48 557.186 103.333 585 131 c 1
 600 99 l 1
 559.355 44.0552 442.839 -30 320 -30 c 3
 179.76 -30 72 74.1445 72 309 c 0
179 397 m 1
 365 432 537.396 484.906 537.396 653.766 c 0
 537.396 732.991 503.56 804.872 431 804.872 c 3
 320 804.872 196.425 723.064 179 397 c 1
EndSplineSet
Colour: ffffff
EndChar

StartChar: f
Encoding: 102 102 58
Width: 446
VWidth: 0
Flags: HMW
LayerCount: 3
Fore
SplineSet
-275.408 -259.646 m 0
 -275.408 -234.117 -258 -198 -212 -182 c 1
 -188 -248 -119.933 -268 -80 -268 c 0
 12.8838 -268 78.6973 -186.803 118 99 c 2
 210 768 l 1
 70 768 l 1
 75 812 l 1
 222 836 l 1
 270 1198 449.052 1317.1 594 1317.1 c 3
 664.551 1317.1 718 1283.36 718 1224.1 c 16
 718 1195.79 699.211 1160.4 655 1143.1 c 1
 632.455 1198.8 577.771 1229.1 531 1229.1 c 3
 410.902 1229.1 344.675 1144 322 825 c 1
 509 825 l 1
 500 768 l 1
 316 768 l 1
 226 135 l 2
 197 -69 106 -354 -160 -354 c 0
 -206.617 -354 -275.408 -324 -275.408 -259.646 c 0
EndSplineSet
Colour: ffffff
EndChar

StartChar: g
Encoding: 103 103 59
Width: 845
VWidth: 0
Flags: HMW
LayerCount: 3
Fore
SplineSet
-17.3018 -179.988 m 0
 -17.3018 -49.6183 99.5703 39.618 195 69 c 1
 195 77 l 1
 154 90.0173 109 111.983 109 173 c 0
 109 227.654 172 285 256 331 c 1
 256 339 l 1
 222.4 365.142 172 420.303 172 523 c 0
 172 698.804 326.093 853.872 486.247 853.872 c 0
 653.067 853.872 702.997 751.332 702.997 623 c 0
 702.997 341.099 468.686 248.394 298 310 c 1
 262.721 292.614 216 259.561 216 220 c 0
 216 149.531 322 141 423 133.939 c 0
 598.703 121.655 679 54 679 -72 c 0
 679 -255.481 471.905 -374.473 242.564 -374.473 c 0
 105.74 -374.473 -17.3018 -314.13 -17.3018 -179.988 c 0
82 -149 m 0
 82 -263 190.478 -310 309 -310 c 0
 453.925 -310 578.528 -247.194 578.528 -114 c 0
 578.528 67.6745 432.848 21 240 54 c 1
 155.22 21.8929 82 -46.4643 82 -149 c 0
273.591 549 m 0
 273.591 450.982 326.241 348 426 348 c 0
 551.911 348 606.997 447.85 606.997 583 c 0
 606.997 688.278 569.468 794.872 455.247 794.872 c 0
 337.885 794.872 273.591 681.385 273.591 549 c 0
638.528 793.872 m 17
 799.528 815.872 l 1
 812.528 802.872 l 1
 791.528 724.872 l 1
 775.528 724.872 l 1
 656.528 746.872 l 9
 638.528 793.872 l 17
EndSplineSet
Colour: ffffff
EndChar

StartChar: h
Encoding: 104 104 60
Width: 902
VWidth: 0
Flags: HMW
LayerCount: 3
Fore
SplineSet
97 0 m 9
 257 1168.1 l 22
 271 1261.1 201 1254.1 129 1252.1 c 13
 135 1284.1 l 17
 170 1305.1 210 1317.1 258 1317.1 c 3
 347.71 1317.1 378.103 1282.22 361 1157.1 c 2
 310 784 l 1
 288 688 l 1
 300 688 l 1
 354.035 761 463.07 857 575 857 c 3
 715.665 857 771.323 788 744 577 c 10
 719 378 l 2
 704 255.336 689 171.134 689 115 c 0
 689 37 758 44 838 50 c 1
 830 7 l 1
 806 -4 761 -17 715 -17 c 3
 596 -17 570 43 593 194 c 10
 636 489 l 18
 657 635 672 763 537 763 c 0
 423.574 763 337.062 683 289 624 c 9
 205 0 l 1
 97 0 l 9
EndSplineSet
Colour: ffffff
EndChar

StartChar: i
Encoding: 105 105 61
Width: 471
VWidth: 0
Flags: HMW
LayerCount: 3
Fore
SplineSet
95 788 m 9
 102 833 l 17
 137.693 847.636 179.196 856 229 856 c 0
 318.386 856 336.875 813.759 315 663 c 2
 278 378 l 2
 262 248.067 249.738 166.201 249.738 114.62 c 4
 249.738 37 319 43.9385 399 50 c 5
 393 7 l 1
 369.348 -4.25 323.674 -17 278 -17 c 3
 162.9 -17 140 43 160 194 c 2
 226 704 l 2
 240.358 806.248 175 798 95 788 c 9
260.802 1157.51 m 0
 260.802 1206.92 283.391 1264.28 337.568 1264.28 c 0
 379.776 1264.28 398.742 1220.06 398.742 1181.05 c 0
 398.742 1126.96 369 1078 319 1078 c 0
 284.744 1078 260.802 1109.62 260.802 1157.51 c 0
EndSplineSet
Layer: 2
SplineSet
68 803 m 21
 103.693 817.636 145.196 826 195 826 c 4
 284.386 826 302.875 783.759 281 633 c 6
 244 378 l 6
 226.609 253.219 215.738 174.242 215.738 124.62 c 4
 215.738 47 285 53.9381 365 60 c 5
 359 7 l 5
 335.348 -4.25 289.674 -17 244 -17 c 7
 128.9 -17 104.611 41.6844 126 194 c 6
 192 664 l 6
 206.358 766.248 141 758 61 748 c 13
 68 803 l 21
224.802 1048.51 m 4
 224.802 1097.92 247.391 1155.28 301.568 1155.28 c 4
 343.776 1155.28 362.742 1111.06 362.742 1072.05 c 4
 362.742 1017.96 336.537 969 287 969 c 4
 250.39 969 224.802 1000.62 224.802 1048.51 c 4
EndSplineSet
Colour: ffffff
EndChar

StartChar: j
Encoding: 106 106 62
Width: 514
VWidth: 0
Flags: HMW
LayerCount: 3
Fore
SplineSet
-21 -335 m 5
 128 -218.483 213 -82 237 99 c 14
 317 704 l 22
 332 806 266 798 186 788 c 13
 193 833 l 21
 228.693 847.636 270.196 856 320 856 c 4
 409.386 856 426 814 406 663 c 6
 328 86 l 22
 286.16 -189.047 114.664 -327.059 29 -376 c 5
 -21 -335 l 5
351.802 1157.51 m 4
 351.802 1206.92 374.391 1264.28 428.568 1264.28 c 4
 470.776 1264.28 489.742 1220.06 489.742 1181.05 c 4
 489.742 1126.96 460 1078 410 1078 c 4
 375.744 1078 351.802 1109.62 351.802 1157.51 c 4
EndSplineSet
Colour: ffffff
EndChar

StartChar: k
Encoding: 107 107 63
Width: 850
VWidth: 0
Flags: HMW
LayerCount: 3
Fore
SplineSet
93 0 m 9
 263 1168.1 l 18
 277 1261 207 1254.1 135 1252.1 c 9
 141 1284.1 l 17
 176 1305.1 216 1317.1 264 1317.1 c 3
 348.484 1317.1 378.636 1282 361 1157.1 c 2
 193 0 l 1
 93 0 l 9
340 414 m 1
 343 431 l 1
 470.647 515.916 617.685 621.785 617.685 752.832 c 4
 617.685 802 544.008 795.967 505 789 c 13
 511 823.872 l 17
 548.846 844.872 592.098 856.872 644 856.872 c 0
 697 856.872 731 834 731 780 c 0
 731 646.435 584.041 512.871 431 426 c 1
 461 372 l 2
 566.66 181.811 650.762 74.1504 760 58 c 2
 798 52 l 1
 785 4 l 1
 754.458 -8.66699 727.902 -15 704 -15 c 0
 584 -15 521 77 422 261 c 2
 340 414 l 1
EndSplineSet
Layer: 2
SplineSet
1104 124.62 m 4
 1104 47 1173.26 53.9381 1253.26 60 c 5
 1247.26 7 l 5
 1223.61 -4.25 1177.93 -17 1132.26 -17 c 7
 1013.26 -17 987.245 43 1010.26 194 c 14
 1053 488.872 l 22
 1074.11 634.506 1088.92 763.231 953.572 763.231 c 4
 835.598 763.231 746.291 683.171 696 623.872 c 13
 622 0 l 5
 514 0 l 13
 601 698.872 l 22
 614.679 791.872 545.305 784.872 473 782.872 c 13
 479 824.872 l 21
 513.569 845.872 553.765 857.872 602 857.872 c 7
 683.113 857.872 725 822.417 695 687.872 c 5
 707 687.872 l 5
 763.197 761.007 875.504 856.872 992 856.872 c 7
 1131.01 856.872 1185.5 787.697 1159 576.872 c 14
 1134 378 l 6
 1119 260 1104 178.292 1104 124.62 c 4
EndSplineSet
Colour: ffffff
EndChar

StartChar: l
Encoding: 108 108 64
Width: 429
VWidth: 0
Flags: HMW
LayerCount: 3
Fore
SplineSet
112.256 194 m 2
 253.256 1165.1 l 2
 267.614 1267.35 202.256 1259.1 122.256 1249.1 c 9
 129.256 1294.1 l 17
 164.949 1308.74 206.452 1317.1 256.256 1317.1 c 0
 352.917 1317.1 372.011 1275 349.256 1124.1 c 2
 237.256 378 l 2
 218.256 250.533 208.994 170.221 208.994 119.62 c 4
 208.994 35.9941 275.937 43.4688 353.256 50 c 5
 347.256 7 l 1
 323.193 -4.25 276.725 -17 230.256 -17 c 3
 115.156 -17 90 43 112.256 194 c 2
EndSplineSet
Colour: ffffff
EndChar

StartChar: m
Encoding: 109 109 65
Width: 1400
VWidth: 0
Flags: HMW
LayerCount: 3
Fore
SplineSet
96 792.872 m 9
 102 824.872 l 17
 136.569 845.872 176.765 857.872 225 857.872 c 3
 306.113 857.872 348 822.417 318 687.872 c 1
 330 687.872 l 1
 386.197 761.007 498.504 856.872 615 856.872 c 3
 759.005 856.872 812.862 787 788 576.872 c 10
 718 0 l 25
 610 0 l 25
 676 488.872 l 18
 696 635 711.921 763.231 576.572 763.231 c 0
 458.598 763.231 369.291 683.171 319 623.872 c 9
 245 0 l 1
 137 0 l 9
 224 708.872 l 18
 237.679 801.872 168.305 794.872 96 792.872 c 9
776 603 m 9
 787 674 l 1
 843 753.138 954.913 856.872 1071 856.872 c 3
 1210.01 856.872 1264.5 787.697 1238 576.872 c 10
 1213 378 l 2
 1198 255.343 1183 170.41 1183 114.62 c 4
 1183 37 1252.26 43.9385 1332.26 50 c 5
 1326.26 7 l 1
 1302.61 -4.25 1256.93 -17 1211.26 -17 c 3
 1092.26 -17 1066.24 43 1089.26 194 c 10
 1132 488.872 l 18
 1153.11 634.506 1167.92 763.23 1032.57 763.23 c 0
 915.056 763.23 826.096 671.18 776 603 c 9
EndSplineSet
Colour: ffffff
EndChar

StartChar: n
Encoding: 110 110 66
Width: 944
VWidth: 0
Flags: HMW
LayerCount: 3
Fore
SplineSet
96 792.872 m 9
 102 824.872 l 17
 136.569 845.872 176.765 857.872 225 857.872 c 3
 306.113 857.872 348 822.417 318 687.872 c 1
 330 687.872 l 1
 386.197 761.007 498.504 856.872 615 856.872 c 3
 754.011 856.872 808.503 787.697 782 576.872 c 10
 757 378 l 2
 742 255.343 727 170.41 727 114.62 c 4
 727 37 796.262 43.9385 876.262 50 c 5
 870.262 7 l 1
 846.609 -4.25 800.935 -17 755.262 -17 c 3
 636.26 -17 610.245 43 633.262 194 c 10
 676 488.872 l 18
 697.108 634.506 711.921 763.231 576.572 763.231 c 0
 458.598 763.231 369.291 683.171 319 623.872 c 9
 245 0 l 1
 137 0 l 9
 224 708.872 l 18
 237.679 801.872 168.305 794.872 96 792.872 c 9
EndSplineSet
Colour: ffffff
EndChar

StartChar: o
Encoding: 111 111 67
Width: 843
VWidth: 0
Flags: HMW
LayerCount: 3
Fore
SplineSet
66 336 m 0
 66 604.068 243.91 856.872 493.361 856.872 c 3
 677.338 856.872 759 679.936 759 503 c 0
 759 197.577 574.761 -26 340 -26 c 3
 159.861 -26 66 133.164 66 336 c 0
172 377 m 0
 172 160.564 268.315 49 389 49 c 0
 565.657 49 652 185.367 652 454 c 0
 652 618.686 594.255 773.872 437.361 773.872 c 3
 281.192 773.872 172 645 172 377 c 0
EndSplineSet
Colour: ffffff
EndChar

StartChar: p
Encoding: 112 112 68
Width: 882
VWidth: 0
Flags: HMW
LayerCount: 3
Fore
SplineSet
50 -366 m 1
 218 743 l 2
 232.547 835 160.129 829 85 827 c 9
 91 859 l 17
 123.602 880 161.51 892 207 892 c 3
 288.113 892 330 856.545 300 722 c 1
 313 720 l 1
 357.339 783.605 464.576 856.872 578 856.872 c 3
 730.852 856.872 800 699.309 800 514 c 0
 800 231 616.006 -20 332 -20 c 3
 293.782 -20 256.655 -16 237 -8 c 9
 260 74 l 17
 290.785 64.9595 324.96 56 398 56 c 0
 561.75 56 688 207 689 455 c 0
 689.738 637.998 655.772 762.872 517 762.872 c 27
 420.621 762.872 374.726 727.248 299 656 c 1
 145 -366 l 1
 50 -366 l 1
EndSplineSet
Layer: 2
SplineSet
36.2617 945.1 m 17
 71.9551 959.74 113.458 968.1 163.262 968.1 c 0
 259.923 968.1 279.017 926 256.262 775.1 c 2
 144.262 29 l 6
 125.262 -93.5332 116 -170.737 116 -219.38 c 4
 116 -303.006 182.942 -295.531 260.262 -289 c 5
 254.262 -342 l 5
 230.199 -353.25 183.73 -366 137.262 -366 c 7
 22.1621 -366 -2.73828 -306 19.2617 -155 c 6
 160.262 806.1 l 2
 174.62 908.35 109.262 900.1 29.2617 890.1 c 9
 36.2617 945.1 l 17
EndSplineSet
Colour: ffffff
EndChar

StartChar: q
Encoding: 113 113 69
Width: 808
VWidth: 0
Flags: HMW
LayerCount: 3
Fore
SplineSet
68 263.2 m 0
 68 644.54 329.234 856.072 529 856.072 c 3
 603.318 856.072 690 837 723 823.072 c 9
 599 29 l 18
 580 -98.9521 570.738 -178.779 570.738 -229.38 c 0
 570.738 -313.006 637.681 -305.531 715 -299 c 1
 709 -342 l 1
 684.938 -353.25 638.469 -366 592 -366 c 3
 476.9 -366 451 -306 474 -155 c 10
 609 745.072 l 17
 578.411 766.615 529.253 774.072 479 774.072 c 3
 312.345 774.072 177 633 177 309.2 c 0
 177 136.527 223.512 61.2002 311 61.2002 c 3
 381 61.2002 423.123 80.8286 455 107 c 1
 478 82 l 1
 436.027 26.5732 380.996 -21.7998 270 -21.7998 c 3
 147.393 -21.7998 68 86.4034 68 263.2 c 0
EndSplineSet
Colour: ffffff
EndChar

StartChar: r
Encoding: 114 114 70
Width: 662
VWidth: 0
Flags: HMW
LayerCount: 3
Fore
SplineSet
96 792.872 m 9
 102 824.872 l 17
 136.569 845.872 176.765 857.872 225 857.872 c 3
 308.139 857.872 326.647 811.368 312 686.872 c 10
 302 601.872 l 17
 313 601.872 l 1
 352.656 719.083 437.635 856.872 533 856.872 c 3
 600.677 856.872 622 818.398 622 771.872 c 0
 622 747.206 607.857 719.176 578 697.872 c 1
 551.303 729.989 528.419 736.872 496 736.872 c 3
 408.807 736.872 335.33 584.955 303 502.872 c 9
 242 0 l 1
 140 0 l 1
 224 708.872 l 2
 235 802 168.305 794.872 96 792.872 c 9
EndSplineSet
Colour: ffffff
EndChar

StartChar: s
Encoding: 115 115 71
Width: 733
VWidth: 0
Flags: HMW
LayerCount: 3
Fore
SplineSet
79 139 m 0
 79 183.5 106.954 222.629 158 228 c 1
 173.296 124.943 238.557 33.0166 364.958 33.0166 c 0
 469.606 33.0166 524 75.7726 524 167 c 0
 524 357.95 130.98 391.791 130.98 608.872 c 0
 130.98 754.274 267.561 856.872 439.98 856.872 c 3
 542.624 856.872 641.111 801.643 641.111 696.832 c 0
 641.111 643.674 604.448 605.827 562.98 599.872 c 1
 528.185 734.57 475.039 792.872 379.98 792.872 c 3
 295.142 792.872 218.093 745.385 218.093 645.745 c 0
 218.093 469.802 622 413.118 622 212 c 0
 622 44.9229 466.268 -24.8408 320.841 -24.8408 c 0
 196.048 -24.8408 79 36.8906 79 139 c 0
EndSplineSet
Colour: ffffff
EndChar

StartChar: t
Encoding: 116 116 72
Width: 588
VWidth: 0
Flags: HMW
LayerCount: 3
Fore
SplineSet
111 756 m 17
 121 819 l 9
 520 819 l 17
 510 756 l 9
 111 756 l 17
136.673 255.321 m 10
 256 1040 l 25
 346 1040 l 25
 244.673 343.321 l 18
 209.947 95.7177 244.945 63.3213 344.673 63.3213 c 3
 406.481 63.3213 450.573 84.2994 473 103 c 1
 490 71 l 1
 441.924 21.6337 372.079 -17 285 -17 c 0
 154.789 -17 109.637 77.5342 136.673 255.321 c 10
EndSplineSet
Colour: ffffff
EndChar

StartChar: u
Encoding: 117 117 73
Width: 941
VWidth: 0
Flags: HMW
LayerCount: 3
Fore
SplineSet
93 789 m 9
 100 834 l 17
 136 849 177 857 227 857 c 0
 318 857 335 815 315 664 c 10
 272 345 l 18
 242.725 127.824 266 74 392 74 c 3
 482 74 578 152 625 212 c 9
 693 704 l 2
 707 806 638 798 552 788 c 9
 559 833 l 17
 598 848 642 856 696 856 c 0
 789 856 808 814 785 663 c 10
 750 378 l 18
 736 255 720 171 720 115 c 0
 720 37 789 44 869 50 c 1
 863 7 l 1
 839 -4 794 -17 748 -17 c 11
 652.279 -17 598.558 46 622 132 c 1
 611 132 l 1
 556.39 54 456.928 -15 336 -15 c 0
 213 -15 137.912 62.2082 164 257 c 10
 224 705 l 2
 238 807 173 799 93 789 c 9
EndSplineSet
Colour: ffffff
EndChar

StartChar: v
Encoding: 118 118 74
Width: 791
VWidth: 0
Flags: HMW
LayerCount: 3
Fore
SplineSet
66 791.872 m 9
 72 823.872 l 17
 103.478 844.872 140.079 856.872 184 856.872 c 3
 278.074 856.872 282.145 800.041 303 669 c 2
 379 95 l 1
 491.95 285.983 616.685 630.172 616.685 732.832 c 4
 616.685 809.188 543.008 799.819 504 789 c 13
 510 823.872 l 17
 545.854 844.872 586.83 856.872 636 856.872 c 0
 689 856.872 723 834 723 780 c 0
 723 645.295 526.507 237.128 397 -10 c 1
 307 -28 l 1
 198 699 l 2
 184 789 161.464 797 66 791.872 c 9
EndSplineSet
Colour: ffffff
EndChar

StartChar: w
Encoding: 119 119 75
Width: 1185
VWidth: 0
Flags: HMW
LayerCount: 3
Fore
SplineSet
66 791.872 m 9
 72 823.872 l 17
 103.478 844.872 140.079 856.872 184 856.872 c 3
 278.074 856.872 286 801 303 669 c 2
 379 95 l 1
 465 308 562.467 560 594 707 c 1
 704 729 l 9
 782 92 l 1
 891.148 283.881 1011.68 629.689 1011.68 732.832 c 0
 1011.68 809.188 936.7 799.819 897 789 c 9
 903 823.872 l 17
 938.854 844.872 979.83 856.872 1029 856.872 c 0
 1082 856.872 1116 834 1116 780 c 0
 1116 645.295 925.534 237.128 800 -10 c 1
 710 -28 l 1
 632 580 l 1
 559.601 378.536 469.399 157.148 397 -10 c 1
 307 -28 l 1
 198 699 l 2
 184 789 161.464 797 66 791.872 c 9
EndSplineSet
Colour: ffffff
EndChar

StartChar: x
Encoding: 120 120 76
Width: 926
VWidth: 0
Flags: HMW
LayerCount: 3
Fore
SplineSet
89 72 m 0
 89 235 275.915 395 405 483 c 1
 429 443 l 1
 297.992 332.736 199.2 244.932 196.315 102.168 c 0
 196.315 38.0459 280.454 45.9141 325 55 c 9
 319 18.1279 l 17
 281.154 -2.87207 237.902 -14.8721 186 -14.8721 c 0
 126.908 -14.8721 89 10.9756 89 72 c 0
122 791.872 m 9
 128 823.872 l 17
 162.851 846.145 203.373 858.872 252 858.872 c 3
 326.433 858.872 348 804 414 651 c 2
 600 222 l 2
 667.377 66.5972 739.65 51 831 48 c 9
 825 16 l 17
 796.333 -5 763 -17 723 -17 c 3
 627.387 -17 582 13 465 287 c 2
 316 637 l 2
 246.5 782.584 231.598 795.559 122 791.872 c 9
497 399 m 1
 647.353 534 718.9 598.811 721.685 742.832 c 0
 721.685 805.595 642.777 797.894 601 789 c 9
 607 823.872 l 17
 644.846 844.872 688.098 856.872 740 856.872 c 0
 793 856.872 827 831.024 827 770 c 0
 827 608.19 645.409 449.358 520 362 c 1
 497 399 l 1
EndSplineSet
Colour: ffffff
EndChar

StartChar: y
Encoding: 121 121 77
Width: 903
VWidth: 0
Flags: HMW
LayerCount: 3
Fore
SplineSet
-18 -257.076 m 0
 -18 -235.513 -3.14642 -212.835 24.3691 -195 c 1
 75.8847 -243.75 116.742 -265 167.369 -265 c 0
 290.434 -265 372.276 -145.957 436.369 0 c 9
 316.369 697 l 2
 300.369 787 279.833 795 184.369 789.872 c 13
 190.369 821.872 l 21
 221.847 842.872 258.448 854.872 302.369 854.872 c 3
 396.443 854.872 400.514 798.041 421.369 667 c 2
 497.369 93 l 1
 610.319 283.983 735.054 628.172 735.054 730.832 c 0
 735.054 807.188 661.377 797.819 622.369 787 c 9
 628.369 821.872 l 17
 661.663 842.872 699.711 854.872 745.369 854.872 c 0
 798.369 854.872 832.369 832 832.369 778 c 0
 832.369 645 647.44 230 514.369 -2 c 0
 406.271 -183.854 296.286 -362 126.369 -362 c 0
 48.511 -362 -18 -326.36 -18 -257.076 c 0
EndSplineSet
Colour: ffffff
EndChar

StartChar: z
Encoding: 122 122 78
Width: 851
VWidth: 0
Flags: HMW
LayerCount: 3
Fore
SplineSet
60 26 m 1
 657 747 l 1
 278 747 l 1
 207 579 l 1
 169 584 l 1
 215 836.872 l 1
 782 836.872 l 1
 782 789 l 1
 209 88 l 1
 213 84 l 1
 274 112 379.313 108.29 429 89 c 2
 514 56 l 2
 570.425 34.0939 635.29 22.4516 702 121 c 1
 734 95 l 1
 646.079 -53.5636 536.604 -60.377 433 -25 c 2
 310 17 l 2
 230.687 44.0826 162 18 103 -8 c 1
 60 26 l 1
EndSplineSet
Colour: ffffff
EndChar

StartChar: bar
Encoding: 124 124 80
Width: 346
VWidth: 0
Flags: HMW
LayerCount: 3
Fore
SplineSet
76.7148 -368 m 1
 334.564 1260 l 1
 408.664 1248 l 1
 150.813 -380 l 1
 76.7148 -368 l 1
EndSplineSet
Colour: ffffff
EndChar

StartChar: braceright
Encoding: 125 125 81
Width: 734
VWidth: 0
Flags: HMW
LayerCount: 3
Fore
SplineSet
42.1309 -378 m 1
 55.8916 -329 l 1
 157.842 -323 l 1
 387.268 -314 244.978 385 582.214 437 c 1
 582.848 441 l 1
 266.993 524 626.319 1189 410.062 1200 c 1
 305.17 1207 l 1
 304.931 1256 l 1
 407.931 1256 l 2
 815.931 1256 359.143 506 654.44 470 c 2
 702.332 463 l 1
 694.571 414 l 1
 640.621 408 l 2
 336.235 374 558.131 -378 144.131 -378 c 2
 42.1309 -378 l 1
EndSplineSet
Colour: ffffff
EndChar

StartChar: asciitilde
Encoding: 126 126 82
Width: 1021
VWidth: 0
Flags: HMW
LayerCount: 3
Fore
SplineSet
118 422 m 1
 118 422 181 662 357 614 c 2
 706 516 l 2
 806 489 858 620 858 620 c 1
 904 619 l 1
 904 619 835 371 658 419 c 2
 310 516 l 2
 218 542 157 408 157 408 c 1
 118 422 l 1
EndSplineSet
Colour: ffffff
EndChar

StartChar: exclamdown
Encoding: 161 161 83
Width: 369
VWidth: 0
Flags: HMW
LayerCount: 3
Fore
SplineSet
58.6055 -375 m 0
 85.373 -206 170.41 192 248.568 515 c 1
 254.885 517 l 1
 293.617 509 l 1
 293.301 507 l 1
 258.093 190 200.187 -264 182.765 -374 c 2
 182.605 -375 l 1
 169.329 -402 142.112 -416 106.112 -416 c 0
 79.1123 -416 53.6963 -406 58.6055 -375 c 0
258.133 809 m 0
 267.319 867 288.13 910 333.13 910 c 0
 375.13 910 382.686 863 374.133 809 c 0
 365.58 755 336.562 717 302.562 717 c 0
 266.562 717 249.58 755 258.133 809 c 0
EndSplineSet
Colour: ffffff
EndChar

StartChar: sterling
Encoding: 163 163 84
Width: 1147
VWidth: 0
Flags: HMW
LayerCount: 3
Fore
SplineSet
103 0 m 1
 115.652 42 l 1
 290.403 72 l 1
 333.876 176 363.574 313 390.174 462 c 1
 407.754 573 l 1
 230.487 565 l 1
 250.674 623 l 1
 421.258 633 l 1
 448.49 786 l 2
 506.015 1105 623.139 1251 850.139 1251 c 0
 932.139 1251 1001.03 1244 1074.8 1211 c 1
 992.804 889 l 1
 946.071 897 l 1
 966.885 1161 l 1
 946.627 1172 856.744 1198 820.744 1198 c 0
 666.744 1198 615.875 1142 546.027 701 c 2
 536.366 640 l 1
 757.425 653 l 1
 736.922 593 l 1
 524.863 580 l 1
 514.727 516 l 2
 481.782 308 431.392 154 380.188 58 c 1
 917.188 58 l 1
 1050.16 323 l 1
 1089.57 313 l 1
 1009 0 l 1
 103 0 l 1
EndSplineSet
Colour: ffffff
EndChar

StartChar: yen
Encoding: 165 165 85
Width: 1161
VWidth: 0
Flags: HMW
LayerCount: 3
Fore
SplineSet
234.932 290 m 1
 252.376 337 l 1
 584.376 337 l 1
 615.104 531 l 1
 277.103 531 l 1
 293.388 577 l 1
 611.388 577 l 1
 429.419 1177 l 5
 294.17 1207 l 5
 302.872 1243 l 5
 720.872 1243 l 5
 711.17 1207 l 5
 541.052 1181 l 5
 713.524 641 l 1
 1036.1 1175 l 5
 856.17 1207 l 5
 863.872 1243 l 5
 1255.87 1243 l 5
 1246.17 1207 l 5
 1112.89 1180 l 5
 737.388 577 l 1
 1096.39 577 l 1
 1077.1 531 l 1
 721.104 531 l 1
 690.376 337 l 1
 1056.38 337 l 1
 1037.93 290 l 1
 682.932 290 l 1
 647.611 67 l 1
 827.286 46 l 1
 811 0 l 1
 351 0 l 1
 362.652 42 l 1
 542.403 72 l 1
 576.932 290 l 1
 234.932 290 l 1
EndSplineSet
Colour: ffffff
EndChar

StartChar: brokenbar
Encoding: 166 166 86
Width: 335
VWidth: 0
Flags: HMW
LayerCount: 3
Fore
SplineSet
73.7646 -374 m 1
 198.571 414 l 1
 266.938 410 l 1
 141.813 -380 l 1
 73.7646 -374 l 1
217.735 535 m 1
 331.456 1253 l 1
 398.664 1248 l 1
 281.785 529 l 1
 217.735 535 l 1
EndSplineSet
Colour: ffffff
EndChar

StartChar: dieresis
Encoding: 168 168 87
Width: 661
VWidth: 0
Flags: HMW
LayerCount: 3
Fore
SplineSet
140 1465 m 0
 140 1515 156 1543 195 1543 c 0
 232 1543 253 1516 253 1465 c 0
 253 1412 239 1384 197 1384 c 0
 155 1384 140 1414 140 1465 c 0
409 1465 m 0
 409 1515 424 1543 463 1543 c 0
 500 1543 521 1516 521 1465 c 0
 521 1412 506 1384 464 1384 c 0
 422 1384 409 1414 409 1465 c 0
EndSplineSet
Colour: ffffff
EndChar

StartChar: copyright
Encoding: 169 169 88
Width: 1446
VWidth: 0
Flags: HMW
LayerCount: 3
Fore
SplineSet
113 620 m 0
 113 1018 372 1281 711 1281 c 0
 1089 1281 1330 1016 1330 623 c 0
 1330 233 1087 -27 702 -27 c 0
 337 -27 113 231 113 620 c 0
181 631 m 0
 181 286 399 31 711 31 c 0
 1030 31 1265 278 1265 613 c 0
 1265 966 1030 1226 713 1226 c 0
 401 1226 181 973 181 631 c 0
430.74 609.9 m 0
 430.74 839.359 569.32 1001.86 738.24 1001.86 c 4
 876.82 1001.86 919.46 928.934 919.46 864.92 c 0
 919.46 827.2 905.52 800.14 866.16 787.84 c 1
 828.44 899.36 784.98 952.66 698.88 952.66 c 0
 590.64 952.66 512.74 827.2 512.74 657.46 c 0
 512.74 412.28 604.58 322.9 746.44 322.9 c 0
 827.62 322.9 899.78 365.54 939.14 404.08 c 1
 953.9 377.02 l 1
 914.54 315.52 813.68 262.22 707.08 262.22 c 0
 525.04 262.22 430.74 413.92 430.74 609.9 c 0
EndSplineSet
Colour: ffffff
EndChar

StartChar: logicalnot
Encoding: 172 172 90
Width: 998
VWidth: 0
Flags: HMW
LayerCount: 3
Fore
SplineSet
114 609 m 1
 126 664 l 1
 872 664 l 1
 872 351 l 5
 800 333 l 1
 800 609 l 1
 114 609 l 1
EndSplineSet
Colour: ffffff
EndChar

StartChar: softhyphen
Encoding: 173 173 91
Width: 658
VWidth: 0
Flags: HMW
LayerCount: 3
Fore
SplineSet
122 435 m 1
 130 497 l 1
 539 558 l 1
 529 495 l 1
 122 435 l 1
EndSplineSet
Colour: ffffff
EndChar

StartChar: micro
Encoding: 181 181 92
Width: 941
VWidth: 0
Flags: HMW
LayerCount: 3
Fore
SplineSet
31 -352 m 1
 43.4863 -303.57 166.568 256.829 196 497 c 10
 224 694.872 l 2
 239 799 173 788.872 93 778.872 c 9
 100 833.872 l 17
 135.693 848.508 177.196 856.872 227 856.872 c 0
 318.465 856.872 335 815 315 663.872 c 10
 272 345 l 18
 244.078 130.912 265.939 77 392 77 c 3
 482.193 77 577.652 153.445 625 212 c 9
 693 694 l 2
 707 796 638.106 788 552 778 c 9
 559 833 l 17
 597.504 847.636 642.274 856 696 856 c 0
 788.504 856 807.768 814 785 663 c 10
 750 378 l 18
 736 260 720 178.292 720 124.62 c 0
 720 47 789.262 53.9385 869.262 60 c 1
 863.262 7 l 1
 839.608 -4.25 793.935 -17 748.262 -17 c 11
 650.384 -17 595.368 45.5205 619 132 c 1
 608 132 l 1
 546.238 55.0479 443.012 -21.7998 307 -21.7998 c 0
 256.6 -21.7998 209.224 -1.81348 181 61 c 1
 181 60 l 1
 174 60 l 1
 174.8 41.0078 177 -20 170 -86 c 2
 140 -366 l 1
 31 -352 l 1
EndSplineSet
Colour: ffffff
EndChar

StartChar: periodcentered
Encoding: 183 183 93
Width: 482
VWidth: 0
Flags: HMW
LayerCount: 3
Fore
SplineSet
119 504 m 0
 119 568 175 618 239 618 c 0
 305 618 361 568 361 504 c 0
 361 437 305 381 239 381 c 0
 173 381 119 437 119 504 c 0
EndSplineSet
Colour: ffffff
EndChar

StartChar: macron
Encoding: 175 175 94
Width: 729
VWidth: 0
Flags: HMW
LayerCount: 3
Fore
SplineSet
140 1380 m 1
 149 1432 l 1
 589 1432 l 1
 581 1380 l 1
 140 1380 l 1
EndSplineSet
Colour: ffffff
EndChar

StartChar: degree
Encoding: 176 176 95
Width: 603
VWidth: 0
Flags: HMW
LayerCount: 3
Fore
SplineSet
119 1107 m 0
 119 1210 204 1304 312 1304 c 0
 428 1304 483 1237 483 1128 c 0
 483 1013 394 928 288 928 c 0
 186 928 119 990 119 1107 c 0
180 1129 m 0
 180 1026 229 967 304 967 c 0
 364 967 421 1023 421 1105 c 0
 421 1200 371 1265 298 1265 c 0
 224 1265 180 1212 180 1129 c 0
EndSplineSet
Colour: ffffff
EndChar

StartChar: plusminus
Encoding: 177 177 96
Width: 847
VWidth: 0
Flags: HMW
LayerCount: 3
Fore
SplineSet
112 36 m 1
 129 100 l 1
 740 100 l 1
 723 36 l 1
 112 36 l 1
EndSplineSet
Refer: 10 43 N 1 0 0 1 117 66 2
Colour: ffffff
EndChar

StartChar: acute
Encoding: 180 180 97
Width: 505
VWidth: 0
Flags: HMW
LayerCount: 3
Fore
SplineSet
132 1370 m 1
 303 1707 l 5
 389 1664 l 1
 171 1344 l 1
 132 1370 l 1
EndSplineSet
Colour: ffffff
EndChar

StartChar: cedilla
Encoding: 184 184 98
Width: 448
VWidth: 0
Flags: HMW
LayerCount: 3
Fore
SplineSet
116 -347 m 1
 174 -327 234 -276 234 -247 c 0
 234 -182 184 -154 148 -118 c 1
 233 3 l 1
 292 3 l 1
 237 -76 l 1
 274 -109 326 -161 326 -227 c 0
 326 -306 245 -354 127 -390 c 1
 116 -347 l 1
EndSplineSet
Colour: ffffff
EndChar

StartChar: germandbls
Encoding: 223 223 101
Width: 995
VWidth: 0
Flags: HMW
LayerCount: 3
Fore
SplineSet
-275.408 -259.646 m 0
 -275.408 -234.117 -258 -198 -212 -182 c 1
 -188 -248 -119.933 -268 -80 -268 c 0
 12.8838 -268 78.6973 -186.803 118 99 c 2
 210 768 l 1
 70 768 l 1
 75 812 l 1
 222 836 l 1
 273.871 1190.48 467.363 1307.1 624 1307.1 c 0
 766.35 1307.1 845.077 1224.32 845.077 1098.73 c 0
 845.077 838 512.878 803 512.878 633.861 c 0
 512.878 453.278 917 405.357 917 212 c 0
 917 44.9229 761.268 -24.8408 615.841 -24.8408 c 0
 491.048 -24.8408 373 36.8906 373 139 c 0
 373 183.5 398.077 221.629 453 227 c 1
 468 125 538 35.0166 661.958 35.0166 c 0
 762 35.0166 815 78.2197 815 164 c 0
 815 345.792 420.834 373.056 420.834 602.588 c 0
 420.834 820 748.354 829 748.354 1071.03 c 0
 748.354 1169.87 694.141 1235.1 575 1235.1 c 0
 433.066 1235.1 363.228 1143.18 324 886 c 2
 228 135 l 2
 202 -69 107.378 -354 -160 -354 c 0
 -206.617 -354 -275.408 -324 -275.408 -259.646 c 0
EndSplineSet
Colour: ffffff
EndChar

StartChar: igrave
Encoding: 236 236 139
Width: 471
VWidth: 0
Flags: HMW
LayerCount: 3
Fore
SplineSet
95 778 m 9
 102 833 l 17
 137.693 847.636 179.196 856 229 856 c 0
 318.386 856 336.875 813.759 315 663 c 2
 278 378 l 2
 262 253 249.738 174.242 249.738 124.62 c 0
 249.738 47 319 53.9385 399 60 c 1
 393 7 l 1
 369.348 -4.25 323.674 -17 278 -17 c 3
 162.9 -17 140 43 160 194 c 2
 226 694 l 2
 240.358 796.248 175 788 95 778 c 9
EndSplineSet
Refer: 52 96 S 1 0 0 1 -20.3806 -386.128 2
Colour: ffffff
EndChar

StartChar: iacute
Encoding: 237 237 140
Width: 471
VWidth: 0
Flags: HMW
LayerCount: 3
Fore
SplineSet
95 778 m 9
 102 833 l 17
 137.693 847.636 179.196 856 229 856 c 0
 318.386 856 336.875 813.759 315 663 c 2
 278 378 l 2
 262 253 249.738 174.242 249.738 124.62 c 0
 249.738 47 319 53.9385 399 60 c 1
 393 7 l 1
 369.348 -4.25 323.674 -17 278 -17 c 3
 162.9 -17 140 43 160 194 c 2
 226 694 l 2
 240.358 796.248 175 788 95 778 c 9
EndSplineSet
Refer: 97 180 S 1 0 0 1 104.619 -394.128 2
Colour: ffffff
EndChar

StartChar: icircumflex
Encoding: 238 238 141
Width: 471
VWidth: 0
Flags: HMW
LayerCount: 3
Fore
SplineSet
95 778 m 9
 102 833 l 17
 137.693 847.636 179.196 856 229 856 c 0
 318.386 856 336.875 813.759 315 663 c 2
 278 378 l 2
 262 253 249.738 174.242 249.738 124.62 c 0
 249.738 47 319 53.9385 399 60 c 1
 393 7 l 1
 369.348 -4.25 323.674 -17 278 -17 c 3
 162.9 -17 140 43 160 194 c 2
 226 694 l 2
 240.358 796.248 175 788 95 778 c 9
EndSplineSet
Refer: 211 710 S 1 0 0 1 -74.4955 -398.128 2
Colour: ffffff
EndChar

StartChar: idieresis
Encoding: 239 239 142
Width: 471
VWidth: 0
Flags: HMW
LayerCount: 3
Fore
SplineSet
95 778 m 9
 102 833 l 17
 137.693 847.636 179.196 856 229 856 c 0
 318.386 856 336.875 813.759 315 663 c 2
 278 378 l 2
 262 253 249.738 174.242 249.738 124.62 c 0
 249.738 47 319 53.9385 399 60 c 1
 393 7 l 1
 369.348 -4.25 323.674 -17 278 -17 c 3
 162.9 -17 140 43 160 194 c 2
 226 694 l 2
 240.358 796.248 175 788 95 778 c 9
EndSplineSet
Refer: 87 168 S 1 0 0 1 -72.0515 -406.128 2
Colour: ffffff
EndChar

StartChar: zero
Encoding: 48 48 155
Width: 2048
VWidth: 1651
LayerCount: 3
Back
SplineSet
67 586 m 0
 67 1017 271 1203 492 1203 c 0
 732 1203 900 1020 900 586 c 0
 900 110 685 -27 487 -27 c 0
 263 -27 67 94 67 586 c 0
283 583 m 0
 283 236 321 70 492 70 c 0
 639 70 683 235 683 586 c 0
 683 928 644 1098 485 1098 c 0
 323 1098 283 926 283 583 c 0
EndSplineSet
EndChar

StartChar: one
Encoding: 49 49 156
Width: 2048
VWidth: 1651
LayerCount: 3
Back
SplineSet
40 0 m 5
 47 74 l 5
 311 121 l 5
 311 1031 l 5
 61 1031 l 5
 67 1108 l 5
 488 1185 l 5
 515 1185 l 5
 515 114 l 5
 777 83 l 5
 767 0 l 5
 40 0 l 5
EndSplineSet
EndChar

StartChar: two
Encoding: 50 50 157
Width: 2048
VWidth: 1651
LayerCount: 3
Back
SplineSet
40 102 m 1
 275 299 l 2
 454 448 603 618 603 820 c 0
 603 958 577 1105 415 1105 c 0
 331 1105 260 1052 235 987 c 1
 198 726 l 1
 121 736 l 1
 94 1020 l 1
 152 1120 340 1209 483 1209 c 0
 701 1209 826 1084 826 866 c 0
 826 583 513 343 321 205 c 2
 246 151 l 1
 700 151 l 1
 804 368 l 1
 874 358 l 1
 826 0 l 1
 46 0 l 1
 40 102 l 1
EndSplineSet
EndChar

StartChar: three
Encoding: 51 51 158
Width: 2048
VWidth: 1651
LayerCount: 3
Back
SplineSet
37 74 m 1xe8
 88 373 l 1
 173 360 l 1
 186 157 l 1
 209 115 279 72 349 72 c 0
 505 72 597 148 597 297 c 0xe8
 597 423 463 545 266 545 c 1
 256 611 l 1
 338 637 556 742 556 918 c 0
 556 1018 495 1124 371 1124 c 0
 317 1124 263 1101 227 1068 c 1
 181 812 l 1
 96 823 l 1
 78 1090 l 1
 122 1138 284 1213 429 1213 c 0
 619 1213 768 1125 768 960 c 0xf0
 768 798 604 693 483 649 c 1
 483 637 l 1
 661 613 813 522 813 357 c 0
 813 139 592 -30 328 -30 c 0
 194 -30 65 29 37 74 c 1xe8
EndSplineSet
EndChar

StartChar: seven
Encoding: 55 55 159
Width: 2048
VWidth: 1651
LayerCount: 3
Back
SplineSet
5 809 m 1
 29 1182 l 1
 817 1182 l 1
 817 1130 l 1
 380 -33 l 1
 173 -11 l 1
 662 1015 l 1
 149 1015 l 1
 74 796 l 1
 5 809 l 1
EndSplineSet
EndChar

StartChar: four
Encoding: 52 52 160
Width: 2048
VWidth: 1651
LayerCount: 3
Back
SplineSet
-21 431 m 1
 621 1194 l 1
 686 1176 l 1
 680 1057 676 864 676 683 c 2
 676 479 l 1
 931 479 l 1
 915 346 l 1
 676 346 l 1
 676 105 l 1
 865 73 l 1
 855 0 l 1
 274 0 l 1
 281 66 l 1
 496 111 l 1
 496 349 l 1
 2 349 l 1
 -21 431 l 1
164 479 m 1
 493 479 l 1
 493 912 l 1
 164 479 l 1
EndSplineSet
EndChar

StartChar: five
Encoding: 53 53 161
Width: 2048
VWidth: 1651
LayerCount: 3
Back
SplineSet
-19 74 m 1
 7 387 l 1
 92 368 l 1
 113 155 l 1
 153 93 222 67 304 67 c 0
 431 67 513 156 513 290 c 0
 513 494 357 582 57 602 c 1
 176 1169 l 1
 645 1198 l 1
 619 1016 l 1
 232 1000 l 1
 196 762 l 1
 582 740 689 564 689 354 c 0
 689 156 505 -25 260 -25 c 0
 151 -25 55 -3 -19 74 c 1
EndSplineSet
EndChar

StartChar: eight
Encoding: 56 56 162
Width: 2048
VWidth: 1651
LayerCount: 3
Back
SplineSet
54 280 m 0xe4
 54 393 127 482 287 575 c 1
 287 584 l 1
 191 648 100 732 100 879 c 0
 100 1047 257 1201 451 1201 c 0
 641 1201 770 1077 770 926 c 0xd8
 770 809 680 679 567 639 c 1
 564 629 l 1
 712 521 798 449 798 300 c 0
 798 116 662 -27 396 -27 c 0
 212 -27 54 89 54 280 c 0xe4
243 304 m 0xe4
 243 142 352 61 461 61 c 0
 556 61 628 115 628 236 c 0
 628 349 473 459 354 533 c 1
 288 474 243 442 243 304 c 0xe4
266 955 m 0xd8
 266 862 352 761 497 678 c 1
 571 721 601 771 601 890 c 0
 601 1031 531 1124 426 1124 c 0
 312 1124 266 1035 266 955 c 0xd8
EndSplineSet
EndChar

StartChar: six
Encoding: 54 54 163
Width: 2048
VWidth: 1651
LayerCount: 3
Back
SplineSet
59 421 m 0
 59 756 352 1112 666 1214 c 1
 703 1155 l 1
 442 1036 312 807 272 609 c 1
 283 609 l 1
 327 659 410 709 518 709 c 0
 712 709 849 589 849 370 c 0
 849 133 659 -21 442 -21 c 0
 171 -21 59 187 59 421 c 0
262 406 m 0
 262 235 327 61 449 61 c 0
 611 61 644 174 644 328 c 0
 644 463 587 606 445 606 c 0
 371 606 293 563 269 527 c 1
 266 494 262 440 262 406 c 0
EndSplineSet
EndChar

StartChar: nine
Encoding: 57 57 164
Width: 2048
VWidth: 1651
LayerCount: 3
Back
SplineSet
40 802 m 0
 40 1046 241 1211 432 1211 c 0
 695 1211 813 998 813 764 c 0
 813 365 574 39 198 -27 c 1
 175 47 l 1
 503 144 578 331 597 575 c 1
 584 575 l 1
 518 502 432 466 340 466 c 0
 149 466 40 585 40 802 c 0
240 845 m 0
 240 710 287 575 429 575 c 0
 499 575 569 612 600 662 c 1
 608 708 609 766 609 806 c 0
 609 970 542 1130 426 1130 c 0
 278 1130 240 1023 240 845 c 0
EndSplineSet
EndChar

StartChar: zero
Encoding: 48 48 165
Width: 1010
VWidth: 0
Flags: HMW
LayerCount: 3
Fore
SplineSet
208.13 588 m 0
 267.049 960 476.378 1202 698.378 1202 c 0
 939.378 1202 1045.47 969 985.13 588 c 0
 920.509 180 701.436 -27 496.724 -27 c 0
 275.873 -27 142.559 174 208.13 588 c 0
327.496 584 m 4
 269.687 219 359.066 27 510.276 27 c 0
 685.597 27 804.688 219 863.13 588 c 0
 914.605 913 854.301 1151 692.301 1151 c 0
 510.301 1151 379.605 913 327.496 584 c 4
EndSplineSet
Substitution2: "'onum' Oldstyle Figures lookup 1-1" zero.osf
Colour: ffffff
EndChar

StartChar: one
Encoding: 49 49 166
Width: 883
VWidth: 0
Flags: HMW
LayerCount: 3
Fore
SplineSet
106.476 3 m 1
 114.603 48 l 1
 404.463 85 l 1
 563.48 1089 l 1
 295.48 1089 l 1
 307.449 1133 l 1
 665.527 1184 l 1
 693.527 1184 l 1
 518.987 82 l 1
 789.188 58 l 1
 771.476 3 l 1
 106.476 3 l 1
EndSplineSet
Substitution2: "'onum' Oldstyle Figures lookup 1-1" one.osf
Colour: ffffff
EndChar

StartChar: two
Encoding: 50 50 167
Width: 1018
VWidth: 0
Flags: HMW
LayerCount: 3
Fore
SplineSet
112 0 m 1
 113.286 46 l 1
 386.547 256 l 2
 706.351 501 840.732 636 876.686 863 c 0
 901.077 1017 840.301 1151 683.301 1151 c 0
 554.301 1151 476.064 1099 435.938 1054 c 1
 356.093 834 l 1
 321.201 841 l 1
 367.114 1093 l 1
 424.4 1139 555.17 1207 717.17 1207 c 0
 907.17 1207 1040.86 1104 1001.26 854 c 0
 961.98 606 748.273 450 347.392 154 c 2
 254.463 85 l 1
 798.463 85 l 1
 928.068 354 l 1
 967.118 348 l 1
 866 0 l 1
 112 0 l 1
EndSplineSet
Substitution2: "'onum' Oldstyle Figures lookup 1-1" two.osf
Colour: ffffff
EndChar

StartChar: three
Encoding: 51 51 168
Width: 921
VWidth: 0
Flags: HMW
LayerCount: 3
Fore
SplineSet
125.789 106 m 1
 200.742 333 l 1
 249.158 323 l 1
 225.54 136 l 1
 249.354 78 330.376 15 435.376 15 c 0
 583.376 15 714.164 121 740.456 287 c 0
 769.124 468 630.062 556 443.487 565 c 1
 446.872 599 l 1
 553.425 653 759.204 740 790.723 939 c 0
 806.244 1037 769.093 1156 646.093 1156 c 0
 542.093 1156 480.54 1102 436.938 1054 c 1
 366.261 854 l 1
 322.844 864 l 1
 364.114 1093 l 1
 425.4 1139 521.17 1207 699.17 1207 c 0
 843.17 1207 938.698 1103 915.574 957 c 0
 889.916 795 741.019 682 612.891 637 c 1
 611.466 628 l 1
 785.348 602 888.975 486 864.584 332 c 0
 830.056 114 606.298 -36 409.298 -36 c 0
 263.298 -36 158.643 23 125.789 106 c 1
EndSplineSet
Substitution2: "'onum' Oldstyle Figures lookup 1-1" three.osf
Colour: ffffff
EndChar

StartChar: four
Encoding: 52 52 169
Width: 1083
VWidth: 0
Flags: HMW
LayerCount: 3
Fore
SplineSet
168.037 398 m 1
 883.002 1187 l 1
 915.102 1175 l 1
 889.412 1057 857.003 865 828.177 683 c 2
 790.322 444 l 1
 1046.32 444 l 1
 1017.44 369 l 1
 778.443 369 l 1
 730.453 66 l 1
 929.444 47 l 1
 912.158 1 l 1
 349.158 1 l 1
 363.811 43 l 1
 625.562 73 l 1
 672.919 372 l 1
 177.919 372 l 1
 168.037 398 l 1
285.322 444 m 1
 681.322 444 l 1
 766.851 984 l 1
 285.322 444 l 1
EndSplineSet
Substitution2: "'onum' Oldstyle Figures lookup 1-1" four.osf
Colour: ffffff
EndChar

StartChar: five
Encoding: 53 53 170
Width: 916
VWidth: 0
Flags: HMW
LayerCount: 3
Fore
SplineSet
126.313 103 m 1
 196.593 351 l 1
 242.851 340 l 1
 228.392 154 l 1
 284.305 84 357.444 47 437.444 47 c 0
 597.444 47 710.184 159 736.475 325 c 0
 768.152 525 582.851 662 322.227 677 c 1
 511.468 1171 l 1
 943.744 1198 l 1
 909.214 1081 l 1
 523.362 1063 l 1
 427.382 779 l 1
 746.58 755 897.605 591 864.661 383 c 0
 831.242 172 630.892 -7 385.892 -7 c 0
 285.892 -7 198.276 27 126.313 103 c 1
EndSplineSet
Substitution2: "'onum' Oldstyle Figures lookup 1-1" five.osf
Colour: ffffff
EndChar

StartChar: six
Encoding: 54 54 171
Width: 945
VWidth: 0
Flags: HMW
LayerCount: 3
Fore
SplineSet
182.838 422 m 0
 235.897 757 500.431 1095 848.12 1213 c 1
 862.468 1171 l 1
 540.72 1040 415.133 809 343.456 609 c 1
 350.456 609 l 1
 417.742 655 505.295 709 641.295 709 c 0
 836.295 709 917.735 535 888.91 353 c 0
 856.282 147 673.516 -22 456.516 -22 c 0
 201.516 -22 145.935 189 182.838 422 c 0
300.621 408 m 0
 261.816 163 365.276 27 488.276 27 c 0
 642.276 27 735.016 139 764.792 327 c 0
 792.351 501 714.94 631 554.94 631 c 0
 445.94 631 365.288 589 333.587 553 c 1
 320.885 517 306.322 444 300.621 408 c 0
EndSplineSet
Substitution2: "'onum' Oldstyle Figures lookup 1-1" six.osf
Colour: ffffff
EndChar

StartChar: seven
Encoding: 55 55 172
Width: 980
VWidth: 0
Flags: HMW
LayerCount: 3
Fore
SplineSet
241.31 848 m 1
 324.21 1182 l 1
 1063.21 1182 l 1
 1054.97 1130 l 1
 440.773 -33 l 1
 331.832 -20 l 1
 964.738 1078 l 1
 377.738 1078 l 1
 278.519 843 l 1
 241.31 848 l 1
EndSplineSet
Substitution2: "'onum' Oldstyle Figures lookup 1-1" seven.osf
Colour: ffffff
EndChar

StartChar: eight
Encoding: 56 56 173
Width: 897
VWidth: 0
Flags: HMW
LayerCount: 3
Fore
SplineSet
154.506 281 m 0
 173.287 399.58 266.678 517.111 415.356 621 c 1
 416.148 626 l 1
 316.386 709.368 283.208 803.158 300.764 914 c 0
 325.946 1073 459.378 1202 652.378 1202 c 0
 818.378 1202 909.086 1090.52 882.63 923.48 c 0
 859.166 775.337 757.344 668.969 664.664 604 c 1
 663.189 601 l 1
 795.118 499.896 853.562 407.626 833.506 281 c 0
 804.521 98 605.724 -27 417.724 -27 c 0
 233.724 -27 127.264 109 154.506 281 c 0
261.524 319 m 0
 232.698 137 372.182 33 474.227 33 c 0
 623.227 33 721.689 118 739.429 230 c 0
 758.476 350.257 699.866 422.411 450.397 596 c 1
 351.627 528 282.59 452 261.524 319 c 0
385.425 975 m 0
 363.681 837.713 434.922 764.358 627.466 628 c 1
 693.189 679.167 776.888 756.942 798.12 891 c 0
 821.547 1038.91 733.137 1154.77 605.812 1154.77 c 0
 492.66 1154.77 402.076 1080.13 385.425 975 c 0
EndSplineSet
Substitution2: "'onum' Oldstyle Figures lookup 1-1" eight.osf
Colour: ffffff
EndChar

StartChar: nine
Encoding: 57 57 174
Width: 938
VWidth: 0
Flags: HMW
LayerCount: 3
Fore
SplineSet
240.935 833 m 0
 273.562 1039 454.17 1207 671.17 1207 c 0
 926.17 1207 979.643 989 942.738 756 c 0
 889.68 421 592.286 46 206.724 -27 c 1
 199.376 15 l 1
 537.739 112 710.711 377 782.388 577 c 1
 775.388 577 l 1
 708.104 531 623.708 478 487.708 478 c 0
 292.708 478 212.108 651 240.935 833 c 0
361.211 860 m 0
 333.651 686 412.903 555 572.903 555 c 0
 681.903 555 764.664 604 796.366 640 c 1
 812.177 683 822.68 743 828.382 779 c 0
 867.186 1024 762.251 1157 639.251 1157 c 0
 485.251 1157 390.987 1048 361.211 860 c 0
EndSplineSet
Substitution2: "'onum' Oldstyle Figures lookup 1-1" nine.osf
Colour: ffffff
EndChar

StartChar: cent
Encoding: 162 162 177
Width: 807
VWidth: 0
Flags: HMW
LayerCount: 3
Fore
SplineSet
556 863 m 1
 564 1115 l 1
 672 1133 l 1
 606 863 l 1
 556 863 l 1
176 358 m 0
 176 664 409 897 621 897 c 3
 735 897 803 823 803 762 c 0
 803 707 762 688 729 683 c 1
 703 777 642 834 579 834 c 0
 386 834 273 583 273 420 c 0
 273 188 346 48 510 48 c 0
 631 48 685 85 723 111 c 1
 738 81 l 1
 704 42 603 -24 459 -24 c 3
 293 -24 176 122 176 358 c 0
355 -267 m 1
 424 0 l 1
 472 0 l 1
 465 -250 l 1
 355 -267 l 1
EndSplineSet
Colour: ffffff
EndChar

StartChar: currency
Encoding: 164 164 178
Width: 820
VWidth: 0
Flags: HMW
LayerCount: 3
Fore
SplineSet
112 734 m 1
 162 782 l 1
 240 693 l 1
 283 729 361 772 409 772 c 0
 463 772 544 730 584 701 c 1
 662 783 l 1
 704 730 l 1
 620 656 l 1
 642 619 673 539 673 493 c 0
 673 442 640 364 613 327 c 1
 706 241 l 1
 654 193 l 1
 575 283 l 1
 529 256 449 220 403 220 c 0
 363 220 293 252 251 278 c 1
 173 190 l 1
 124 239 l 1
 208 317 l 1
 181 359 147 439 147 492 c 0
 147 538 179 611 203 647 c 1
 112 734 l 1
221 496 m 0
 221 372 295 288 406 288 c 0
 522 288 600 371 600 489 c 0
 600 616 522 700 404 700 c 0
 293 700 221 617 221 496 c 0
EndSplineSet
Colour: ffffff
EndChar

StartChar: section
Encoding: 167 167 179
Width: 942
VWidth: 0
Flags: HMW
LayerCount: 3
Fore
SplineSet
65.1465 -239 m 1
 139.286 46 l 1
 185.652 42 l 1
 178.649 -179 l 1
 209.87 -266 320.792 -317 433.792 -317 c 0
 557.792 -317 685.829 -241 709.429 -92 c 0
 753.935 189 228.705 257 245.637 547 c 1
 549.742 333 l 2
 695.903 233 853.906 132 825.714 -46 c 0
 795.779 -235 620.131 -378 372.131 -378 c 0
 228.131 -378 116.634 -318 65.1465 -239 c 1
301.891 959 m 0
 333.409 1158 523.307 1271 683.307 1271 c 0
 791.307 1271 902.764 1236 957.885 1161 c 1
 875.785 851 l 1
 830.894 858 l 1
 842.381 1101 l 1
 816.835 1167 730.278 1214 648.278 1214 c 0
 536.278 1214 428.083 1137 407.335 1006 c 0
 358.394 697 905.732 636 885.059 335 c 1
 572.329 564 l 2
 431.484 666 271.322 766 301.891 959 c 0
EndSplineSet
Colour: ffffff
EndChar

StartChar: ordfeminine
Encoding: 170 170 180
Width: 787
VWidth: 0
Flags: HMW
LayerCount: 3
Fore
SplineSet
114 711 m 0
 114 841 229 952 484 967 c 1
 484 994 l 2
 484 1161 454 1235 331 1235 c 0
 242 1235 234 1165 222 1068 c 1
 188 1068 141 1086 141 1122 c 1
 141 1210 262 1282 374 1282 c 0
 498 1282 572 1205 572 1036 c 2
 572 764 l 2
 572 690 556 640 626 628 c 2
 679 617 l 1
 675 583 l 1
 659 576 628 566 594 566 c 0
 528 566 494 616 494 674 c 2
 494 685 l 1
 490 685 l 1
 472 636 391 560 280 560 c 0
 195 560 114 613 114 711 c 0
210 734 m 0
 210 668 236 622 306 622 c 0
 383 622 447 672 484 735 c 1
 484 927 l 1
 324 904 210 861 210 734 c 0
EndSplineSet
Colour: ffffff
EndChar

StartChar: registered
Encoding: 174 174 181
Width: 1176
VWidth: 0
Flags: HMW
LayerCount: 3
Fore
SplineSet
108 1022 m 0
 108 1332 319 1518 579 1518 c 0
 855 1518 1068 1336 1068 1026 c 0
 1068 728 835 544 569 544 c 0
 315 544 108 736 108 1022 c 0
163 1036 m 0
 163 776 327 592 577 592 c 0
 811 592 1011 752 1011 1016 c 0
 1011 1300 827 1467 579 1472 c 0
 357 1476 163 1336 163 1036 c 0
349 771 m 1
 352 802 l 1
 423 815 l 1
 423 1284 l 1
 351 1293 l 1
 355 1316 l 1
 422 1327 499 1335 566 1335 c 0
 664 1335 759 1291 759 1203 c 0
 759 1142 716 1086 622 1040 c 1
 622 1039 l 1
 711 916 l 2
 777 824 796 815 826 804 c 2
 848 796 l 1
 845 770 l 1
 826 763 820 763 803 763 c 0
 751 763 708 788 657 880 c 2
 578 1020 l 1
 489 1020 l 1
 489 812 l 1
 584 804 l 1
 579 771 l 1
 349 771 l 1
489 1055 m 1
 591 1055 l 1
 643 1088 689 1130 689 1191 c 0
 689 1272 637 1299 543 1299 c 0
 519 1299 489 1297 489 1297 c 1
 489 1055 l 1
EndSplineSet
Colour: ffffff
EndChar

StartChar: two.superior
Encoding: 178 178 182
Width: 754
VWidth: 0
Flags: HMW
LayerCount: 3
Fore
SplineSet
202.646 566 m 5
 207.09 613 l 5
 377.888 738 l 6
 562.428 874 639.148 948 659.104 1074 c 4
 672.567 1159 637.446 1234 546.446 1234 c 4
 471.446 1234 439.338 1227 418.12 1213 c 5
 368.362 1063 l 5
 326.996 1067 l 5
 357.18 1226 l 5
 393.931 1256 478.316 1290 583.316 1290 c 4
 706.316 1290 794.496 1228 770.58 1077 c 4
 746.822 927 608.935 833 350.583 654 c 6
 346.108 651 l 5
 662.108 651 l 5
 729.549 799 l 5
 764.074 796 l 5
 707.646 566 l 5
 202.646 566 l 5
EndSplineSet
Colour: ffffff
EndChar

StartChar: three.superior
Encoding: 179 179 183
Width: 708
VWidth: 0
Flags: HMW
LayerCount: 3
Fore
SplineSet
211.099 632 m 1
 270.59 774 l 1
 313.798 769 l 1
 298.95 650 l 1
 313.564 616 363.705 579 426.705 579 c 0
 514.705 579 592.524 641 607.888 738 c 0
 624.677 844 503.862 902 392.654 907 c 1
 394.822 927 l 1
 442.99 947 603.701 1002 622.074 1118 c 0
 631.102 1175 602.188 1245 535.188 1245 c 0
 479.188 1245 449.922 1237 426.12 1213 c 1
 375.322 1088 l 1
 326.272 1094 l 1
 352.288 1233 l 1
 391.673 1267 470.425 1297 584.425 1297 c 0
 676.425 1297 747.13 1232 732.717 1141 c 0
 716.72 1040 615.217 980 525.782 952 c 1
 524.832 946 l 1
 652.298 930 728.469 849 713.422 754 c 0
 692.198 620 537.469 527 399.469 527 c 0
 297.469 527 233.438 571 211.099 632 c 1
EndSplineSet
Colour: ffffff
EndChar

StartChar: paragraph
Encoding: 182 182 184
Width: 1221
VWidth: 0
Flags: HMW
LayerCount: 3
Fore
SplineSet
242.519 843 m 0
 280.214 1081 534.188 1245 782.188 1245 c 2
 964.188 1245 l 1
 767.158 1 l 1
 445.158 1 l 1
 457.811 43 l 1
 678.562 73 l 1
 854.686 1185 l 1
 813.161 1188 791.002 1187 782.002 1187 c 0
 527.002 1187 411.422 1076 374.043 840 c 0
 346.801 668 454.627 528 669.627 528 c 1
 643.708 478 l 1
 382.708 478 196.27 551 242.519 843 c 0
823.158 1 m 1
 1020.19 1245 l 1
 1304.19 1245 l 1
 1294.17 1207 l 1
 1113.53 1184 l 1
 936.137 64 l 1
 1125.29 46 l 1
 1107.68 -2 l 1
 823.158 1 l 1
EndSplineSet
Colour: ffffff
EndChar

StartChar: one.superior
Encoding: 185 185 185
Width: 647
VWidth: 0
Flags: HMW
LayerCount: 3
Fore
SplineSet
200.646 566 m 1
 208.772 611 l 1
 377.099 632 l 1
 467.062 1200 l 1
 311.062 1200 l 1
 321.03 1244 l 1
 561.465 1272 l 1
 579.465 1272 l 1
 477.782 630 l 1
 635.356 621 l 1
 621.646 566 l 1
 200.646 566 l 1
EndSplineSet
Colour: ffffff
EndChar

StartChar: ordmasculine
Encoding: 186 186 186
Width: 850
VWidth: 0
Flags: HMW
LayerCount: 3
Fore
SplineSet
255.912 896 m 0
 294.241 1138 467.207 1283 646.207 1283 c 0
 820.207 1283 912.915 1117 883.139 929 c 0
 847.661 705 674.379 558 510.379 558 c 0
 341.379 558 222.651 686 255.912 896 c 0
363.099 954 m 0
 331.264 753 398.564 616 548.564 616 c 0
 665.564 616 754.254 734 780.546 900 c 0
 808.104 1074 748.704 1223 601.704 1223 c 0
 480.704 1223 387.648 1109 363.099 954 c 0
EndSplineSet
Colour: ffffff
EndChar

StartChar: onequarter
Encoding: 188 188 187
Width: 1341
VWidth: 0
Flags: HMW
LayerCount: 3
Fore
SplineSet
194.279 570 m 5
 202.406 615 l 5
 370.732 636 l 5
 460.695 1204 l 5
 304.695 1204 l 5
 314.664 1248 l 5
 555.099 1276 l 5
 573.099 1276 l 5
 471.416 634 l 5
 628.99 625 l 5
 615.279 570 l 5
 194.279 570 l 5
280.189 -43 m 5
 726.13 588 l 5
 1140.96 1212 l 5
 1237.17 1207 l 5
 1233.54 1203 l 5
 805.605 591 l 5
 380.556 -47 l 5
 280.189 -43 l 5
708.587 231 m 5
 1169.51 723 l 5
 1212.4 716 l 5
 1195.16 645 1174.79 529 1157.52 420 c 6
 1134.87 277 l 5
 1282.87 277 l 5
 1261.99 202 l 5
 1122.99 202 l 5
 1101.14 64 l 5
 1215.13 45 l 5
 1201.84 -1 l 5
 827.842 -1 l 5
 840.494 41 l 5
 1008.77 68 l 5
 1030.47 205 l 5
 713.469 205 l 5
 708.587 231 l 5
821.872 277 m 5
 1039.87 277 l 5
 1084.22 557 l 5
 821.872 277 l 5
EndSplineSet
Colour: ffffff
EndChar

StartChar: onehalf
Encoding: 189 189 188
Width: 1423
VWidth: 0
Flags: HMW
LayerCount: 3
Fore
SplineSet
194.279 570 m 1
 202.406 615 l 1
 370.732 636 l 1
 460.695 1204 l 1
 304.695 1204 l 1
 314.664 1248 l 1
 555.099 1276 l 1
 573.099 1276 l 1
 471.416 634 l 1
 628.99 625 l 1
 615.279 570 l 1
 194.279 570 l 1
280.189 -43 m 1
 726.13 588 l 1
 1140.96 1212 l 1
 1237.17 1207 l 1
 1233.54 1203 l 1
 805.605 591 l 1
 380.556 -47 l 1
 280.189 -43 l 1
790 0 m 1
 794.444 47 l 1
 965.242 172 l 2
 1149.78 308 1226.5 382 1246.46 508 c 0
 1259.92 593 1224.8 668 1133.8 668 c 0
 1058.8 668 1026.69 661 1005.47 647 c 1
 955.717 497 l 1
 914.351 501 l 1
 944.534 660 l 1
 981.285 690 1065.67 724 1170.67 724 c 0
 1293.67 724 1381.85 662 1357.93 511 c 0
 1334.18 361 1196.29 267 937.938 88 c 2
 933.463 85 l 1
 1249.46 85 l 1
 1316.9 233 l 1
 1351.43 230 l 1
 1295 0 l 1
 790 0 l 1
EndSplineSet
Colour: ffffff
EndChar

StartChar: threequarters
Encoding: 190 190 189
Width: 1349
VWidth: 0
Flags: HMW
LayerCount: 3
Fore
SplineSet
207 644 m 1
 266.49 786 l 1
 309.698 781 l 1
 294.851 662 l 1
 309.466 628 359.605 591 422.605 591 c 0
 510.605 591 588.425 653 603.788 750 c 0
 620.577 856 499.764 914 388.556 919 c 1
 390.723 939 l 1
 438.891 959 599.602 1014 617.975 1130 c 0
 627.002 1187 598.089 1257 531.089 1257 c 0
 475.089 1257 445.822 1249 422.021 1225 c 1
 371.223 1100 l 1
 322.173 1106 l 1
 348.188 1245 l 1
 387.573 1279 466.325 1309 580.325 1309 c 0
 672.325 1309 743.03 1244 728.617 1153 c 0
 712.62 1052 611.117 992 521.683 964 c 1
 520.732 958 l 1
 648.198 942 724.369 861 709.322 766 c 0
 688.099 632 533.369 539 395.369 539 c 0
 293.369 539 229.338 583 207 644 c 1
288.189 -43 m 1
 734.13 588 l 1
 1148.96 1212 l 1
 1245.17 1207 l 1
 1241.54 1203 l 1
 813.605 591 l 1
 388.556 -47 l 1
 288.189 -43 l 1
716.587 231 m 1
 1177.51 723 l 1
 1220.4 716 l 1
 1203.16 645 1182.79 529 1165.52 420 c 2
 1142.87 277 l 1
 1290.87 277 l 1
 1269.99 202 l 1
 1130.99 202 l 1
 1109.14 64 l 1
 1223.13 45 l 1
 1209.84 -1 l 1
 835.842 -1 l 1
 848.494 41 l 1
 1016.77 68 l 1
 1038.47 205 l 1
 721.469 205 l 1
 716.587 231 l 1
829.872 277 m 1
 1047.87 277 l 1
 1092.22 557 l 1
 829.872 277 l 1
EndSplineSet
Colour: ffffff
EndChar

StartChar: dotaccent
Encoding: 729 729 190
Width: 406
VWidth: 0
Flags: HMW
LayerCount: 3
Fore
SplineSet
140 1479 m 0
 140 1542 160 1576 203 1576 c 0
 246 1576 266 1543 266 1479 c 0
 266 1413 249 1376 203 1376 c 0
 157 1376 140 1415 140 1479 c 0
EndSplineSet
Colour: ffffff
EndChar

StartChar: ring
Encoding: 730 730 191
Width: 605
VWidth: 0
Flags: HMW
LayerCount: 3
Fore
SplineSet
140 1529 m 0
 140 1621 214 1700 308 1700 c 0
 405 1700 466 1632 466 1538 c 0
 466 1447 398 1363 296 1363 c 0
 204 1363 140 1427 140 1529 c 0
205 1540 m 0
 205 1476 237 1404 306 1404 c 0
 365 1404 400 1447 400 1523 c 0
 400 1589 362 1660 296 1660 c 0
 232 1660 205 1600 205 1540 c 0
EndSplineSet
Colour: ffffff
EndChar

StartChar: tilde
Encoding: 732 732 192
Width: 747
VWidth: 0
Flags: HMW
LayerCount: 3
Fore
SplineSet
137 1379 m 1
 169 1540 263.778 1551.58 336 1511.2 c 2
 409 1470.37 l 2
 477.145 1432.26 532 1410 575 1531 c 1
 607 1523 l 1
 578 1379 498.873 1340.59 407 1391.22 c 2
 335 1430.9 l 2
 269.444 1467.03 214 1497 168 1371 c 1
 137 1379 l 1
EndSplineSet
Colour: ffffff
EndChar

StartChar: thorn
Encoding: 254 254 198
Width: 882
VWidth: 0
Flags: HMW
LayerCount: 3
Fore
SplineSet
45 -366 m 1
 151 -366 l 1
 304 651 l 1
 377.989 724.248 422.832 760.872 517 760.872 c 27
 651.738 760.872 684 636 684 453 c 0
 684 217.913 558.936 64 398 64 c 0
 324.96 64 290.785 68.9775 260 74 c 9
 237 -8 l 17
 256.655 -16 293.782 -20 332 -20 c 3
 631.002 -20 800 222.175 800 514 c 0
 800 699.309 730.852 856.872 578 856.872 c 3
 464.576 856.872 357.339 783.605 313 720 c 1
 300 722 l 1
 323 784 l 1
 374 1157.1 l 2
 391.103 1282.22 360.71 1317.1 271 1317.1 c 3
 223 1317.1 183 1305.1 148 1284.1 c 9
 142 1242.1 l 17
 214 1244.1 284 1251 270 1158.1 c 10
 45 -366 l 1
EndSplineSet
Layer: 2
SplineSet
642 125 m 0
 642 47 711 54 791 60 c 1
 783 7 l 1
 759 -4 714 -17 668 -17 c 3
 549 -17 523 43 546 194 c 10
 589 489 l 18
 610 635 625 763 490 763 c 0
 376.574 763 290.062 683 242 624 c 9
 158 0 l 1
 50 0 l 13
 210 1158.1 l 22
 224 1251.1 154 1244.1 82 1242.1 c 13
 88 1284.1 l 21
 123 1305.1 163 1317.1 211 1317.1 c 7
 300.71 1317.1 331.103 1282.22 314 1157.1 c 6
 263 784 l 5
 241 688 l 5
 253 688 l 1
 307.035 761 416.07 857 528 857 c 3
 668.665 857 724.323 788 697 577 c 10
 672 378 l 2
 657 260 642 179 642 125 c 0
EndSplineSet
Colour: ffffff
EndChar

StartChar: Thorn
Encoding: 222 222 199
Width: 1128
VWidth: 0
Flags: HMW
LayerCount: 3
Fore
SplineSet
116 0 m 1
 127.652 42 l 1
 290.403 72 l 1
 468.894 1180 l 1
 299.854 1205 l 1
 311.03 1244 l 1
 769.03 1244 l 1
 757.854 1205 l 1
 576.21 1182 l 1
 550.711 1021 l 1
 593.186 1024 650.186 1024 692.186 1024 c 0
 960.186 1024 1158.92 915 1118.53 660 c 0
 1078.94 410 820.279 248 570.279 248 c 0
 553.279 248 534.121 247 517.596 250 c 1
 514.406 293 l 1
 568.882 296 l 2
 837.782 308 963.174 462 991.366 640 c 0
 1018.61 812 917.059 979 654.059 979 c 0
 612.059 979 542.949 972 542.949 972 c 1
 399.453 66 l 1
 630.286 46 l 1
 615 0 l 1
 116 0 l 1
EndSplineSet
Colour: ffffff
EndChar

StartChar: eth
Encoding: 240 240 200
Width: 964
VWidth: 0
Flags: HMW
LayerCount: 3
Fore
SplineSet
186.432 451 m 0
 233.313 747 385.307 949 597.307 949 c 0
 715.307 949 793.894 858 810.856 782 c 1
 818.015 783 l 1
 807.704 901 763.285 1012 713.064 1099 c 1
 455.987 1048 l 1
 476.064 1099 l 1
 688.717 1141 l 1
 637.388 1221 585.099 1276 562.217 1302 c 1
 628.217 1302 l 1
 680.356 1265 728.596 1216 770.251 1157 c 1
 937.794 1192 l 1
 920.717 1141 l 1
 798.915 1117 l 1
 892.524 963 945.996 745 901.648 465 c 0
 852.866 157 682.724 -27 467.724 -27 c 0
 224.724 -27 147.944 208 186.432 451 c 0
294.875 498 m 0
 245.301 185 349.593 29 500.593 29 c 0
 654.593 29 760.261 210 794.312 425 c 0
 844.521 742 712.438 893 576.438 893 c 2
 572.438 893 l 1
 417.962 890 325.761 693 294.875 498 c 0
EndSplineSet
Colour: ffffff
EndChar

StartChar: Eth
Encoding: 208 208 201
Width: 1387
VWidth: 0
Flags: HMW
LayerCount: 3
Fore
SplineSet
112 0 m 1
 126.652 42 l 1
 300.403 72 l 1
 383.822 593 l 5
 200.764 580 l 5
 219.425 641 l 5
 393.167 652 l 5
 471.617 1153 l 1
 303.102 1175 l 1
 318.804 1211 l 1
 520.714 1242 654.406 1259 800.406 1259 c 0
 1308.41 1259 1424.52 963 1375.74 655 c 0
 1321.57 313 1056 0 543 0 c 2
 112 0 l 1
398.553 54 m 1
 578.553 54 l 2
 932.553 54 1200.29 267 1252.87 599 c 0
 1310.37 962 1143.85 1205 754.854 1205 c 0
 712.854 1205 623.17 1207 580.22 1201 c 1
 495.435 660 l 5
 785.443 679 l 5
 767.94 619 l 5
 485.932 600 l 5
 398.553 54 l 1
EndSplineSet
Colour: ffffff
EndChar

StartChar: ae
Encoding: 230 230 202
Width: 1291
VWidth: 0
Flags: HMW
LayerCount: 3
Fore
SplineSet
118 264 m 0
 118 645.34 382.067 856.872 584 856.872 c 0
 657.169 856.872 741.741 851.268 775 823.872 c 1
 765.856 768.774 l 1
 828.918 825.454 903.874 856.872 982 856.872 c 0
 1087.21 856.872 1163.32 792.634 1163.32 673.552 c 0
 1163.32 502.517 955.403 374.71 705 354 c 1
 699.746 179.522 756.488 68 912 68 c 0
 1009.24 68 1077.82 103.333 1103 121 c 1
 1118 89 l 1
 1077.35 38.3145 960.839 -30 838 -30 c 0
 732.807 -30 645.888 34.8633 609.015 177 c 1
 564 115 446.294 -21 320 -21 c 0
 197.393 -21 118 87.2031 118 264 c 0
233 310 m 0
 233 138.024 274.653 63 353 63 c 0
 437 63 542 153 575 221 c 1
 664 747.872 l 1
 632.705 770.9 582.412 778.872 531 778.872 c 0
 366.552 778.872 233 627.057 233 310 c 0
707 397 m 1
 850.049 415.493 1045.4 484.906 1045.4 653.766 c 0
 1045.4 722.505 1008.7 784.872 930 784.872 c 0
 811.132 784.872 722.42 707.075 707 397 c 1
EndSplineSet
Colour: ffffff
EndChar

StartChar: AE
Encoding: 198 198 203
Width: 1834
VWidth: 0
Flags: HMW
LayerCount: 3
Fore
SplineSet
113.476 3 m 1
 123.811 43 l 1
 271.562 73 l 1
 1100.89 1180 l 1
 871.854 1205 l 1
 884.03 1244 l 1
 1871.03 1244 l 1
 1788.51 925 l 1
 1745.46 931 l 1
 1765.95 1193 l 1
 1231.95 1193 l 1
 1147.38 659 l 1
 1489.38 659 l 1
 1547.39 798 l 1
 1597.66 806 l 1
 1503.05 417 l 1
 1454.62 408 l 1
 1468.82 605 l 1
 1138.82 605 l 1
 1051.55 54 l 1
 1615.55 54 l 1
 1729.16 323 l 1
 1769.57 313 l 1
 1690 0 l 1
 736 0 l 1
 748.652 42 l 1
 946.403 72 l 1
 1009.76 472 l 1
 660.758 472 l 1
 360.453 66 l 1
 541.603 48 l 1
 524.476 3 l 1
 113.476 3 l 1
709.053 537 m 1
 1023.05 537 l 1
 1111.11 1093 l 1
 709.053 537 l 1
EndSplineSet
Colour: ffffff
EndChar

StartChar: divide
Encoding: 247 247 204
Width: 1049
VWidth: 0
Flags: HMW
LayerCount: 3
Fore
SplineSet
113 476 m 1
 125 541 l 1
 937 541 l 1
 926 476 l 1
 113 476 l 1
457 224 m 0
 457 287 474 317 517 317 c 0
 560 317 584 288 584 224 c 0
 584 158 565 120 519 120 c 0
 473 120 457 160 457 224 c 0
457 789 m 0
 457 852 474 885 517 885 c 0
 560 885 584 853 584 789 c 0
 584 723 565 685 519 685 c 0
 473 685 457 725 457 789 c 0
EndSplineSet
Colour: ffffff
EndChar

StartChar: multiply
Encoding: 215 215 205
Width: 682
VWidth: 0
Flags: HMW
LayerCount: 3
Fore
SplineSet
116 294 m 1
 300 462 l 1
 118 630 l 1
 176 678 l 1
 340 496 l 1
 512 680 l 1
 558 622 l 1
 378 459 l 1
 566 287 l 1
 508 242 l 1
 337 425 l 1
 162 236 l 1
 116 294 l 1
EndSplineSet
Colour: ffffff
EndChar

StartChar: Oslash
Encoding: 216 216 206
Width: 1403
VWidth: 0
Flags: HMW
LayerCount: 3
Fore
SplineSet
126.115 127 m 1
 293.388 255 l 1
 334.714 276 l 1
 1229.29 1012 l 1
 1258.99 1048 l 1
 1391.88 1161 l 5
 1474.5 1127 l 1
 1306.18 1005 l 1
 1256.58 976 l 1
 351.271 229 l 1
 322.519 199 l 1
 204.571 92 l 1
 126.115 127 l 1
242.198 620 m 0
 303.177 1005 572.782 1274 935.782 1274 c 0
 1277.78 1274 1414.02 1004 1354.31 627 c 0
 1305.84 321 1066.72 -27 660.724 -27 c 0
 343.724 -27 186.289 267 242.198 620 c 0
361.543 679 m 0
 303.1 310 428.86 37 718.86 37 c 0
 1008.86 37 1199.27 330 1237.75 573 c 0
 1298.1 954 1164.91 1218 878.912 1218 c 0
 585.912 1218 402.882 940 361.543 679 c 0
EndSplineSet
Colour: ffffff
EndChar

StartChar: oslash
Encoding: 248 248 207
Width: 1074
VWidth: 0
Flags: HMW
LayerCount: 3
Fore
SplineSet
-7 14 m 1
 124 151 l 1
 166 177 l 1
 627 689 l 1
 658 733 l 1
 724 815 l 1
 838 825 l 1
 704 681 l 1
 657 648 l 1
 196 140 l 1
 165 89 l 1
 105 22 l 1
 -7 14 l 1
66 336 m 0
 66 604.068 243.91 856.872 493.361 856.872 c 3
 677.338 856.872 759 679.936 759 503 c 0
 759 197.577 574.761 -26 340 -26 c 3
 159.861 -26 66 133.164 66 336 c 0
176 377 m 0
 176 160.564 272.315 49 393 49 c 0
 564.283 49 648 185.367 648 454 c 0
 648 618.686 590.255 773.872 433.361 773.872 c 3
 281.9 773.872 176 645 176 377 c 0
EndSplineSet
Colour: ffffff
EndChar

StartChar: Euro
Encoding: 8364 8364 208
Width: 1262
VWidth: 0
Flags: HMW
LayerCount: 3
Fore
SplineSet
189.885 517 m 1
 201.496 584 l 1
 997.496 584 l 1
 973.885 517 l 1
 189.885 517 l 1
223.761 693 m 1
 236.056 758 l 1
 1071.06 758 l 1
 1047.76 693 l 1
 223.761 693 l 1
376.496 584 m 0
 436.207 961 658.307 1271 1030.31 1271 c 0
 1163.31 1271 1235.03 1244 1320.47 1171 c 1
 1235.09 834 l 1
 1192.36 842 l 1
 1203.38 1101 l 1
 1173.99 1168 1129.01 1206 1016.01 1206 c 0
 744.012 1206 562.059 979 504.564 616 c 0
 443.587 231 576.811 43 830.811 43 c 0
 893.811 43 990.671 80 1071.24 172 c 1
 1144.42 432 l 1
 1189.37 438 l 1
 1167.31 103 l 1
 1036.17 20 931.882 -26 767.882 -26 c 0
 481.882 -26 318.053 215 376.496 584 c 0
EndSplineSet
Colour: ffffff
EndChar

StartChar: Germandbls
Encoding: 7838 7838 209
Width: 1364
VWidth: 0
Flags: HMW
LayerCount: 3
Fore
SplineSet
110 0 m 1
 121.652 42 l 1
 296.403 72 l 1
 405.848 763 l 2
 462.232 1119 655.307 1271 954.307 1271 c 0
 1144.31 1271 1378 1187 1358.2 1062 c 0
 1349.65 1008 1317.85 984 1260 966 c 1
 1256.1 1074 1196.11 1194 1060.11 1194 c 0
 970.956 1194 813.687 1101.65 813.687 926.97 c 0
 813.687 660.123 1296.67 608 1296.67 330.678 c 0
 1296.67 114.03 1090.31 -26 841.882 -26 c 0
 697.882 -26 587.86 37 536.373 116 c 1
 610.512 401 l 1
 658.245 393 l 1
 649.559 174 l 1
 680.779 87 791.86 37 904.86 37 c 0
 1030.96 37 1184.03 123.465 1184.03 293.311 c 0
 1184.03 536.977 707.99 595.378 707.99 875.95 c 0
 707.99 1020.04 814.227 1178.28 969.12 1213 c 1
 970.912 1218 l 1
 951.388 1221 903.388 1221 883.388 1221 c 0
 683.388 1221 553.195 1043 512.49 786 c 2
 388 0 l 1
 110 0 l 1
EndSplineSet
Layer: 2
SplineSet
490 76 m 5
 573 391 l 5
 627 383 l 5
 595 134 l 5
 634 72 755 37 876 37 c 4
 1020 37 1183 122 1183 295 c 4
 1183 552 685 617 685 914 c 4
 685 1145 914 1271 1090 1271 c 4
 1200 1271 1316 1249 1377 1201 c 5
 1304 871 l 5
 1249 878 l 5
 1272 1131 l 5
 1239 1179 1138 1214 1045 1214 c 4
 921 1214 791 1114 791 959 c 4
 791 686 1298 624 1298 345 c 4
 1298 127 1083 -26 814 -26 c 4
 666 -26 547 19 490 76 c 5
EndSplineSet
Colour: ffffff
EndChar

StartChar: Germandbls.alt
Encoding: 65536 -1 210
Width: 1351
VWidth: 0
Flags: HMW
LayerCount: 3
Fore
SplineSet
104 0 m 1
 115.652 42 l 1
 290.403 72 l 1
 399.848 763 l 2
 456.232 1119 649.307 1271 948.307 1271 c 0
 1114.31 1271 1280.46 1253 1337.29 1233 c 1
 1332.38 1202 l 1
 911.571 736 l 1
 1045 662 1292.66 557 1292.66 333.005 c 0
 1292.66 116.075 1084.53 -26 835.882 -26 c 0
 691.882 -26 581.86 37 530.373 116 c 1
 604.512 401 l 1
 652.245 393 l 1
 643.559 174 l 1
 674.779 87 785.86 37 898.86 37 c 0
 1024.97 37 1178 123.433 1178 293.3 c 0
 1178 522 930 602 794.701 680 c 1
 780.195 721 l 1
 1190.47 1171 l 1
 1190.94 1174 l 1
 1120.54 1203 970.388 1221 877.388 1221 c 0
 677.388 1221 546 1043 506.49 786 c 2
 385 0 l 1
 104 0 l 1
EndSplineSet
Colour: ffffff
EndChar

StartChar: circumflex
Encoding: 710 710 211
Width: 678
VWidth: 0
Flags: HMW
LayerCount: 3
Fore
SplineSet
139 1388 m 1
 326 1569 l 1
 380 1582 l 1
 539 1396 l 1
 507 1359 l 1
 341 1494 l 1
 332 1494 l 1
 160 1358 l 1
 139 1388 l 1
EndSplineSet
Colour: ffffff
EndChar

StartChar: dagger
Encoding: 8224 8224 212
Width: 892
VWidth: 0
Flags: HMW
LayerCount: 3
Fore
SplineSet
219.254 734 m 1
 240.291 810 l 1
 536.183 803 l 1
 597.931 1256 l 1
 690.03 1244 l 1
 609.183 803 l 1
 916.291 810 l 1
 896.621 730 l 1
 599.204 740 l 1
 441.507 -363 l 1
 337.407 -351 l 1
 526.521 742 l 1
 219.254 734 l 1
EndSplineSet
Colour: ffffff
EndChar

StartChar: daggerdbl
Encoding: 8225 8225 213
Width: 900
VWidth: 0
Flags: HMW
LayerCount: 3
Fore
SplineSet
134.779 87 m 1
 152.767 169 l 1
 431.866 157 l 1
 491.875 498 l 1
 527.204 740 l 1
 221.254 734 l 1
 242.133 809 l 1
 537.024 802 l 1
 598.931 1256 l 1
 691.03 1244 l 1
 610.024 802 l 1
 916.133 809 l 1
 895.462 729 l 1
 600.046 739 l 1
 542.947 429 l 1
 507.392 154 l 1
 819.658 162 l 1
 801.779 87 l 1
 498.363 97 l 1
 431.507 -363 l 1
 341.09 -353 l 1
 422.363 97 l 1
 134.779 87 l 1
EndSplineSet
Colour: ffffff
EndChar

StartChar: eight.osf
Encoding: 65537 -1 214
Width: 896
VWidth: 0
Flags: HMW
LayerCount: 3
Fore
SplineSet
150.282 228.541 m 0
 150.282 391.997 253.596 507.97 415.356 621 c 1
 416.148 626 l 1
 333.204 695.314 296.287 771.832 296.287 859.365 c 0
 296.287 1055.99 445.816 1202 652.378 1202 c 0
 799.242 1202 881.092 1114.6 887.173 978.947 c 0
 896 782 765.159 674.448 664.664 604 c 1
 663.189 601 l 1
 778.195 512.865 837.36 431.442 837.36 328.123 c 0
 837.36 109.95 615.236 -27 417.724 -27 c 0
 252.888 -27 150.282 82.1454 150.282 228.541 c 0
257.681 271.444 m 0
 257.681 118.998 365 33 474.227 33 c 0
 634.263 33 742.748 128.325 742.748 269.234 c 0
 742.748 367.906 673.605 440.075 452.397 594 c 1
 372 525 257.681 433.236 257.681 271.444 c 0
381.656 930.013 m 0
 381.656 820.022 457.047 748.689 627.466 628 c 1
 697.693 682.673 801.889 779.231 801.889 937.94 c 0
 801.889 1062.7 719.312 1154.77 605.812 1154.77 c 0
 478.236 1154.77 381.656 1064.81 381.656 930.013 c 0
EndSplineSet
Colour: ffffff
EndChar

StartChar: emdash
Encoding: 8212 8212 215
Width: 1381
VWidth: 0
Flags: HMW
LayerCount: 3
Fore
SplineSet
126 430 m 1
 139 493 l 1
 1258 498 l 1
 1246 437 l 1
 126 430 l 1
EndSplineSet
Colour: ffffff
EndChar

StartChar: endash
Encoding: 8211 8211 216
Width: 870
VWidth: 0
Flags: HMW
LayerCount: 3
Fore
SplineSet
126 430 m 1
 138 493 l 1
 747 498 l 1
 738 437 l 1
 126 430 l 1
EndSplineSet
Colour: ffffff
EndChar

StartChar: five.osf
Encoding: 65538 -1 217
Width: 943
VWidth: 0
Flags: HMW
LayerCount: 3
Fore
SplineSet
79.0109 -153.919 m 0
 79.0109 -73 127.99 -18.2578 180.624 -15 c 1
 190 -148 270 -231 390.779 -231 c 0
 525.869 -231 730.144 -156.451 730.144 83.1152 c 0
 730.144 253.307 576.516 383.612 328.512 401 c 1
 495.446 912 l 1
 947.148 948 l 1
 911.617 831 l 1
 533.341 804 l 1
 430.667 503 l 1
 686.685 481.071 856.625 338.979 856.625 146.64 c 0
 856.625 -158 570 -297 320.96 -297 c 0
 155 -297 79.0109 -228 79.0109 -153.919 c 0
EndSplineSet
Colour: ffffff
EndChar

StartChar: four.osf
Encoding: 65539 -1 218
Width: 1074
VWidth: 0
Flags: HMW
LayerCount: 3
Fore
SplineSet
126.392 154 m 1
 857.475 969 l 1
 892.732 958 l 5
 867.043 840 834.217 658 805.391 476 c 2
 761.677 200 l 1
 963.677 200 l 1
 936.798 125 l 1
 749.798 125 l 1
 684.078 -271 l 1
 574.96 -297 l 1
 642.115 127 l 1
 137.115 127 l 1
 126.392 154 l 1
253.677 200 m 1
 649.677 200 l 1
 740.946 751 l 1
 253.677 200 l 1
EndSplineSet
Colour: ffffff
EndChar

StartChar: guilsinglleft
Encoding: 8249 8249 219
Width: 517
VWidth: 0
Flags: HMW
LayerCount: 3
Fore
SplineSet
109 469 m 1
 377 822 l 1
 405 786 l 1
 217 462 l 1
 404 116 l 1
 372 78 l 1
 112 449 l 1
 109 469 l 1
EndSplineSet
Colour: ffffff
EndChar

StartChar: nine.osf
Encoding: 65540 -1 222
Width: 900
VWidth: 0
Flags: HMW
LayerCount: 3
Fore
SplineSet
142.631 -217 m 1
 445.171 -81 611.789 106 703.466 306 c 1
 697.466 306 l 1
 630.18 260 559.053 215 423.053 215 c 0
 269.869 215 196.188 342.43 196.188 493.251 c 0
 196.188 746.788 383.12 945 608.673 945 c 0
 810.959 945 876.425 812.22 876.425 641.008 c 0
 876.425 204.469 546.989 -132.153 157.662 -261 c 1
 142.631 -217 l 1
318.146 519.503 m 0
 318.146 385.531 381.657 292 509.248 292 c 0
 612.248 292 684.217 336 716.919 372 c 1
 742.466 444.406 756.152 544.558 756.152 628.304 c 0
 756.152 801.643 679.42 895 576.754 895 c 0
 425.351 895 318.146 738.233 318.146 519.503 c 0
EndSplineSet
Colour: ffffff
EndChar

StartChar: one.osf
Encoding: 65541 -1 223
Width: 737
VWidth: 0
Flags: HMW
LayerCount: 3
Fore
SplineSet
75.4756 3 m 1
 85.6025 48 l 1
 332.463 85 l 1
 451.567 837 l 1
 224.567 837 l 1
 237.537 881 l 1
 554.09 935 l 1
 579.09 935 l 1
 443.987 82 l 1
 682.188 58 l 1
 668.476 3 l 1
 75.4756 3 l 1
EndSplineSet
Colour: ffffff
EndChar

StartChar: seven.osf
Encoding: 65542 -1 224
Width: 889
VWidth: 0
Flags: HMW
LayerCount: 3
Fore
SplineSet
202.972 587 m 1
 268.872 921 l 1
 927.872 921 l 1
 919.319 867 l 1
 660 514 408 178 339.168 -302 c 1
 249 -306 224.522 -267.622 224.522 -213.894 c 0
 224.522 46.9128 666 619 820.667 825 c 1
 327.667 825 l 1
 255.705 579 l 1
 202.972 587 l 1
EndSplineSet
Colour: ffffff
EndChar

StartChar: six.osf
Encoding: 65543 -1 225
Width: 895
VWidth: 0
Flags: HMW
LayerCount: 3
Fore
SplineSet
174.873 283.008 m 0
 174.873 671 460.309 1077.26 857.012 1206 c 1
 871.043 1162 l 1
 579.462 1051 423.133 809 351.456 609 c 1
 359.456 609 l 1
 426.742 655 524.869 700 616.869 700 c 0
 772.324 700 845.24 579.621 845.24 431.09 c 0
 845.24 187.467 648.854 -22 439.516 -22 c 0
 236.83 -22 174.873 111.307 174.873 283.008 c 0
292.347 297.814 m 0
 292.347 125.032 370.716 36 473.702 36 c 0
 633.432 36 723.614 223.998 723.614 408.008 c 0
 723.614 537.693 663.467 623 529.674 623 c 0
 454.674 623 380.972 587 338.587 553 c 1
 312.487 479.027 292.347 387.22 292.347 297.814 c 0
EndSplineSet
Colour: ffffff
EndChar

StartChar: three.osf
Encoding: 65544 -1 226
Width: 878
VWidth: 0
Flags: HMW
LayerCount: 3
Fore
SplineSet
68.1602 -120.792 m 0
 68.1602 -49 103 -17.8 164.574 -11 c 1
 169.976 -160 258.729 -229 388.729 -229 c 0
 547.794 -229 668.305 -127.207 668.305 72.4532 c 0
 668.305 235.955 534.833 298.863 361.624 307 c 1
 364.851 340 l 1
 512.173 392.417 705.559 512.743 705.559 730.091 c 0
 705.559 818.492 677.022 893.062 574.526 893.062 c 0
 572.848 893.062 571.152 893.041 569.438 893 c 0
 444.962 890 367.256 788 324.562 717 c 1
 272.412 735 l 1
 331.885 839 460.158 967 626.158 967 c 0
 752.438 967 829.386 876.844 829.386 752.093 c 0
 829.386 559.055 657.864 424.156 530.395 375 c 1
 529.761 371 l 1
 658.333 362.768 785.89 258.335 785.89 108.963 c 0
 785.89 -146.779 541.444 -292 335.752 -292 c 0
 177.403 -292 68.1602 -218.122 68.1602 -120.792 c 0
EndSplineSet
Colour: ffffff
EndChar

StartChar: two.osf
Encoding: 65545 -1 227
Width: 919
VWidth: 0
Flags: HMW
LayerCount: 3
Fore
SplineSet
113 0 m 1
 113.286 46 l 1
 354.152 203 l 2
 566.6 341.477 742.936 503 742.936 701.238 c 0
 742.936 808.834 687.361 897 570.071 897 c 0
 461.549 897 352.572 778 301.791 649 c 1
 248.801 668 l 1
 305.984 827 474.475 969 628.475 969 c 0
 779.839 969 871.112 888.926 871.112 744.265 c 0
 871.112 506 632.881 313.144 353.808 144 c 2
 256.463 85 l 1
 708.463 85 l 1
 819.932 290 l 1
 857.506 281 l 1
 784 0 l 1
 113 0 l 1
EndSplineSet
Colour: ffffff
EndChar

StartChar: f.i
Encoding: 61441 61441 228
Width: 911
VWidth: 0
Flags: HMW
LayerCount: 3
Fore
SplineSet
-275.408 -259.646 m 0
 -275.408 -234.117 -258 -198 -212 -182 c 1
 -188 -248 -119.933 -268 -80 -268 c 0
 12.8838 -268 78.6973 -186.803 118 99 c 2
 210 768 l 1
 70 768 l 1
 75 812 l 1
 222 836 l 1
 272.581 1198 461.259 1317.1 614 1317.1 c 0
 706.172 1317.1 776 1270.99 776 1190 c 0
 776 1161.69 757.211 1126.3 713 1109 c 1
 683.546 1186.79 612.105 1229.1 551 1229.1 c 0
 419.409 1229.1 346.845 1144 322 825 c 1
 409.917 835 615.777 856.872 658 856.872 c 0
 743 856.872 768 815 748 663 c 2
 711 378 l 2
 695 253 682.738 174.242 682.738 124.62 c 0
 682.738 47 752 53.9385 832 60 c 1
 826 7 l 1
 802.348 -4.25 756.674 -17 711 -17 c 0
 595.9 -17 573 43 593 194 c 2
 659 694 l 2
 662.447 763.236 616.756 768 550 768 c 2
 316 768 l 1
 226 135 l 2
 197 -69 106 -354 -160 -354 c 0
 -206.617 -354 -275.408 -324 -275.408 -259.646 c 0
EndSplineSet
Colour: ffffff
EndChar

StartChar: f.l
Encoding: 61442 61442 229
Width: 978
VWidth: 0
Flags: HMW
LayerCount: 3
Fore
SplineSet
-275.408 -259.646 m 4
 -275.408 -234.117 -258 -198 -212 -182 c 5
 -188 -248 -119.933 -268 -80 -268 c 4
 12.8838 -268 78.6973 -186.803 118 99 c 6
 210 768 l 5
 70 768 l 5
 75 812 l 5
 222 836 l 5
 272.581 1198 461.259 1317.1 614 1317.1 c 4
 727.696 1317.1 827.314 1268.55 867 1185 c 13
 749 378 l 6
 731 255 720.738 178.262 720.738 129.619 c 4
 720.738 45.9941 787.681 53.4688 865 60 c 5
 859 7 l 5
 834.938 -4.25 788.469 -17 742 -17 c 4
 626.9 -17 603 43 624 194 c 6
 762.457 1167.76 l 5
 721.609 1207.59 673.639 1229.1 571 1229.1 c 4
 427.917 1229.1 349.015 1144 322 825 c 5
 537 825 l 5
 528 768 l 5
 316 768 l 5
 226 135 l 6
 197 -69 106 -354 -160 -354 c 4
 -206.617 -354 -275.408 -324 -275.408 -259.646 c 4
EndSplineSet
Colour: ffffff
EndChar

StartChar: zero.osf
Encoding: 65546 -1 230
Width: 1011
VWidth: 0
Flags: HMW
LayerCount: 3
Fore
SplineSet
178.213 362.863 m 0
 178.213 662.887 383.436 967 661.158 967 c 0
 874.32 967 979.588 790.765 979.588 575.491 c 0
 979.588 218.602 732.299 -26 497.882 -26 c 0
 303.907 -26 178.213 134.841 178.213 362.863 c 0
294.679 348.897 m 0
 294.679 164.865 373.532 29 512.593 29 c 0
 712.943 29 861.644 287.995 861.644 598.126 c 0
 861.644 765.574 804.396 914 648.764 914 c 0
 410.799 914 294.679 619.185 294.679 348.897 c 0
EndSplineSet
Colour: ffffff
EndChar

StartChar: euro.osf
Encoding: 65549 -1 233
Width: 1016
VWidth: 0
Flags: HW
HStem: -26 70<536.466 796.649> 318 67<162.978 709.366> 469 65<435.174 767.282> 877.7 56<655.885 880.014>
VStem: 908.526 45.734<632.192 677.199>
LayerCount: 3
Fore
SplineSet
144.366 318 m 1
 162.978 385 l 1
 732.979 385 l 1
 709.366 318 l 1
 144.366 318 l 1
176.282 469 m 1
 193.577 534 l 1
 789.577 534 l 1
 767.282 469 l 1
 176.282 469 l 1
292.774 320.68 m 0
 292.774 637.419 494.478 933.7 809.884 933.7 c 0
 897.507 933.7 967.412 917.5 1024.38 873.7 c 1
 954.26 626.7 l 1
 908.526 634.7 l 1
 925.294 803.7 l 1
 903.151 847 854.004 877.7 744.014 877.7 c 0
 592.312 877.7 424.467 653.088 424.467 336.258 c 0
 424.467 148.979 508.182 44 664.969 44 c 0
 780.969 44 860.549 92.2539 920.016 139 c 1
 937.155 102 l 1
 885.109 50.1377 791.882 -26 605.882 -26 c 0
 410.975 -26 292.774 106.698 292.774 320.68 c 0
EndSplineSet
Colour: ffffff
EndChar

StartChar: dollar.osf
Encoding: 65550 -1 234
Width: 761
VWidth: 0
Flags: HW
HStem: -36 51<298.066 496.787> 891 8<497.12 581.12>
VStem: 125.224 91.145<73.0323 174.1> 305.798 117.851<-179 -133.091> 505.036 114.852<997.506 1042> 667.9 88.671<695.443 796.039>
LayerCount: 3
Fore
SplineSet
138 139 m 0
 138 183.5 155.954 222.629 207 228 c 1
 222.296 124.943 301.557 33.0166 427.958 33.0166 c 0
 532.606 33.0166 587 75.7725 587 167 c 0
 587 357.95 213.98 431.791 213.98 648.872 c 0
 213.98 794.274 360.561 906.872 532.98 906.872 c 3
 635.624 906.872 749.111 840.643 749.111 735.832 c 0
 749.111 682.674 715.448 653.827 673.98 647.872 c 1
 639.185 782.57 568.039 842.872 472.98 842.872 c 3
 388.142 842.872 301.093 785.385 301.093 685.745 c 0
 301.093 509.802 685 413.118 685 212 c 0
 685 44.9229 529.268 -24.8408 383.841 -24.8408 c 0
 259.048 -24.8408 138 36.8906 138 139 c 0
305.798 -197 m 1
 346.624 -15 l 1
 439.05 -6 l 1
 423.649 -179 l 1
 305.798 -197 l 1
497.12 891 m 1
 505.036 1042 l 1
 619.888 1060 l 1
 581.12 891 l 1
 497.12 891 l 1
EndSplineSet
Colour: ffffff
EndChar

StartChar: percent.osf
Encoding: 65551 -1 235
Width: 1210
VWidth: 0
Flags: HW
HStem: -36 43<839.725 948.805> 425 38<898.832 996.811> 451 45<338.262 452.711> 897 36<624.071 1010.09> 910 39<397.926 490.758 624.071 1032.15>
VStem: 551.869 90.684<585.964 895.386>
LayerCount: 3
Fore
SplineSet
203.29 644.379 m 0
 203.29 808.815 321.821 949 459.307 949 c 0xac
 474.307 949 493.307 949 501.832 946 c 1
 486.071 897 l 17x94
 473.496 906 472.13 910 453.13 910 c 0x8c
 359.375 910 294.091 760.552 294.091 653.373 c 0
 294.091 573.871 326.456 496 389.559 496 c 0
 494.581 496 557.315 646.772 557.315 771.976 c 0
 557.315 843.793 542.308 905.803 533.772 933 c 9
 1032.15 948 l 25
 1034.07 897 l 25
 624.071 897 l 17
 640.197 874.614 645.865 809.434 645.865 757.334 c 0
 645.865 584.63 518.757 451 382.432 451 c 0
 271.792 451 203.29 525.377 203.29 644.379 c 0
214.773 -33 m 1
 638.698 459 l 1
 1032.15 948 l 1
 1136.36 943 l 1
 1136.04 941 l 1
 718.332 463 l 1xc4
 324.14 -37 l 1
 214.773 -33 l 1
700.186 158.466 m 0
 700.186 321.887 820.918 463 957.332 463 c 0
 1081.11 463 1146.71 378.652 1146.71 263.612 c 0
 1146.71 99.2286 1013.66 -36 881.298 -36 c 0
 770.204 -36 700.186 39.7549 700.186 158.466 c 0
794.013 165.914 m 0
 794.013 86.1612 825.334 6.99999 888.108 7 c 0
 979.45 7 1054.2 140.584 1054.2 256.025 c 0
 1054.2 339.636 1016.51 425 951.312 425 c 0
 857.272 425 794.013 273.268 794.013 165.914 c 0
EndSplineSet
Colour: ffffff
EndChar

StartChar: sterling.osf
Encoding: 65552 -1 236
Width: 1037
VWidth: 0
Flags: HW
HStem: 0 58<357.188 815.188> 0 42<104.652 187.204> 399 60<212.698 370.621> 880.7 53<640.23 811.063>
VStem: 875.443 89.11<741.572 835.05>
LayerCount: 3
Fore
SplineSet
92 0 m 1x78
 104.652 42 l 1x78
 277.403 72 l 1
 317.54 136 339.419 211 352.882 296 c 2
 370.621 408 l 1
 192.195 399 l 1
 212.698 459 l 1
 384.124 468 l 1
 406.288 589 l 2
 434.48 742.905 537.698 933.7 779.882 933.7 c 0
 779.884 933.7 l 0
 885.514 933.7 966.021 876.227 966.021 798.475 c 0
 966.021 738.703 923.984 699.393 875.443 691 c 1
 868.111 806.136 828.786 880.7 733.489 880.7 c 0
 579.489 880.7 546.219 771.659 509.211 538 c 2
 499.391 476 l 1
 758.608 490 l 1
 739.264 431 l 1
 486.571 414 l 1
 476.593 351 l 2
 451.885 195 421.624 115 357.188 58 c 1
 815.188 58 l 1xb8
 943.357 299 l 1
 982.615 288 l 1
 907 0 l 1
 92 0 l 1x78
EndSplineSet
Colour: ffffff
EndChar

StartChar: yen.osf
Encoding: 65553 -1 237
Width: 1046
VWidth: 0
Flags: HW
HStem: 0 46<301.651 373.109 677.851 749.999> 307 48<194.226 518.623 632.226 979.623> 503 46<224.952 510.952 754.952 1010.67> 879.7 34<248.715 298.676 550.277 615.33 749.557 801.436 1020.37 1083.33>
LayerCount: 3
Fore
SplineSet
177 307 m 1
 194 355 l 1
 526 355 l 1
 374 848 l 1
 237 880 l 1
 249 914 l 1
 624 914 l 1
 615 880 l 1
 484 851 l 1
 611 408 l 1
 874 848 l 1
 742 880 l 1
 750 913 l 1
 1093 913 l 1
 1083 880 l 1
 952 850 l 1
 632 355 l 1
 998 355 l 1
 980 307 l 1
 625 307 l 1
 587 67 l 1
 766 46 l 1
 750 0 l 1
 290 0 l 1
 302 42 l 1
 481 72 l 1
 519 307 l 1
 177 307 l 1
208 503 m 1
 225 549 l 1
 511 549 l 9
 519 503 l 17
 208 503 l 1
721 503 m 9
 755 549 l 17
 1029 549 l 1
 1011 503 l 1
 721 503 l 9
EndSplineSet
Colour: ffffff
EndChar

StartChar: numbersign.osf
Encoding: 65554 -1 238
Width: 997
VWidth: 0
Flags: HW
HStem: -26 21G<263.029 326.999 527.05 592.999> 246 77<99 838> 556 77<157.001 900>
LayerCount: 3
Fore
SplineSet
78 246 m 17
 99 323 l 9
 859 323 l 17
 838 246 l 9
 78 246 l 17
135 550 m 17
 157.001 633 l 9
 919.001 633 l 17
 900 550 l 9
 135 550 l 17
260 -26 m 9
 404 924.7 l 17
 472 934.7 l 9
 326.999 -19 l 17
 260 -26 l 9
524 -26 m 9
 669 924.7 l 17
 737 933.7 l 9
 592.999 -19 l 17
 524 -26 l 9
EndSplineSet
Colour: ffffff
EndChar
